<?xml version="1.0" encoding="utf-8"?>
<!-- Generator: Adobe Illustrator 21.0.0, SVG Export Plug-In . SVG Version: 6.00 Build 0)  -->
<svg version="1.1" id="Layer_1" xmlns="http://www.w3.org/2000/svg" xmlns:xlink="http://www.w3.org/1999/xlink" x="0px" y="0px"
	 viewBox="0 0 197.4 126" style="enable-background:new 0 0 197.4 126;" xml:space="preserve">
<style type="text/css">
	.st0{fill:#086AD8;}
	.st1{fill:#E21E26;}
	.st2{stroke:#231F20;stroke-width:0.5;stroke-miterlimit:10;}
</style>
<path class="st0" d="M181.1,9.8c-6.7-13.5-49-6.1-94.5,16.5C41,48.9,9.6,78.2,16.3,91.7s49,6.1,94.5-16.5S187.8,23.3,181.1,9.8z
	 M109,71.5C70.3,90.8,34.2,97.1,28.5,85.6s21.1-36.4,59.8-55.7s74.8-25.5,80.5-14.1C174.6,27.4,147.8,52.3,109,71.5z"/>
<path d="M44.9,45.6"/>
<path d="M73,49.5"/>
<g>
	<path d="M120.4,34.9c0.5-2.3,1.1-5.2,1.6-7.5c9,0,18.1,0,27.1,0c-0.6,2.5-1.1,4.9-1.7,7.5c-0.3,0-0.5,0-0.8,0c-2.5,0-5.8,0-8.3,0
		l-0.2,0.6c-1,4.4-2,8.7-2.9,13c-0.6,2.6-1.1,5.3-1.7,7.9c0,0.2-0.1,0.4-0.1,0.6c-3,0-6,0-9.1,0c1.6-7.4,3.3-14.7,4.9-22.1
		C126.3,34.9,123.3,34.9,120.4,34.9"/>
	<path d="M33.6,57.1c1.6-10,3.2-19.8,4.9-29.8c0.2,0,0.5,0,0.7,0c5.5,0,10.9,0,16.4,0c1.6,0,3.2,0.2,4.6,0.9
		c2.7,1.4,3.9,4.3,2.9,7.5c-0.7,2.3-2.2,4-4.4,5c-0.3,0.1-0.6,0.3-1,0.5c0.5,0.2,1,0.4,1.5,0.6c2.3,1,3.3,2.9,3.3,5.3
		c-0.1,4-2.1,7-5.7,8.6c-1.5,0.7-3.3,0.8-5,1s-3.4,0.2-5.1,0.2C42.6,57,38.4,57,34.3,57C34.2,57.1,33.9,57.1,33.6,57.1z M44.1,50.5
		c1.9,0,3.8,0.1,5.6,0c0.8-0.1,1.7-0.4,2.4-0.8c1.1-0.7,1.5-1.9,1.2-3.2c-0.2-1.1-1.1-1.5-2.1-1.6c-1.9-0.1-4.2-0.1-6.1-0.1v0.3
		C44.7,46.9,44.4,48.7,44.1,50.5z M46,39.1c0.3,0,4.1,0.2,6,0c0.5-0.1,1.1-0.5,1.4-0.9c0.8-0.8,0.9-2.3,0.6-3.4
		c-0.3-1-1.3-1.2-2.2-1.3c-1.6-0.1-3.2,0-4.9,0C46.6,35.3,46.3,37.1,46,39.1z"/>
	<path d="M115.4,27.7c-1.1-0.3-2.2-0.4-3.3-0.4c-4.9,0-9.8,0-14.8,0c-0.2,0-0.5,0-0.7,0C94.3,37.2,92,47.1,89.7,57
		c3.2,0,6.4,0,9.6,0c0.6-2.6,1.2-5.2,1.7-7.8c0.2-0.9,0.2-1,0.2-1c2.3,0,5.5,0,7.7-0.2c2.4-0.2,4.7-1.1,6.5-2.7
		c3.5-3.1,5-7,4.9-11.6C120.4,30.5,118.5,28.6,115.4,27.7z M110.5,38.2c-0.6,1.8-1.9,2.8-3.8,3c-1.3,0.1-2.6,0.1-4,0.2
		c0.2-0.7,0.3-1.2,0.4-1.7c0.4-1.7,0.7-3.5,1.1-5.2c0-0.2,0.1-0.4,0.1-0.4c0.8,0,1.8,0,2.7,0c0.1,0,0.1,0,0.2,0c0.3,0,0.5,0,0.7,0
		C110.7,34.3,111.2,36.4,110.5,38.2z"/>
	<polygon class="st1" points="44.1,50.5 34.7,50.5 33.6,57.1 43.1,57.1 	"/>
	<path d="M87.5,27.7c-1.1-0.3-2.2-0.4-3.3-0.4c-4.9,0-9.8,0-14.8,0c-0.2,0-0.5,0-0.7,0c-2.3,9.9-4.6,19.8-6.9,29.7
		c3.2,0,6.4,0,9.6,0c0.6-2.6,1.2-5.2,1.7-7.8c0.2-0.9,0.2-1,0.2-1c2.3,0,5.5,0,7.7-0.2c2.4-0.2,4.7-1.1,6.5-2.7
		c3.5-3.1,5-7,4.9-11.6C92.5,30.5,90.6,28.6,87.5,27.7z M82.7,38.2c-0.6,1.8-1.9,2.8-3.8,3c-1.3,0.1-2.6,0.1-4,0.2
		c0.2-0.7,0.3-1.2,0.4-1.7c0.4-1.7,0.7-3.5,1.1-5.2c0-0.2,0.1-0.4,0.1-0.4c0.8,0,1.8,0,2.7,0c0.1,0,0.1,0,0.2,0c0.3,0,0.5,0,0.7,0
		C82.8,34.3,83.3,36.4,82.7,38.2z"/>
	<polygon class="st0" points="63.3,50.5 72.8,50.5 71.4,57 61.8,57 	"/>
	<polygon class="st1" points="91.2,50.5 100.7,50.5 99.2,57 89.6,57 	"/>
	<polygon class="st0" points="125.8,50.5 134.8,50.5 133.5,57 124.4,57 	"/>
</g>
<g>
	<path class="st2" d="M3.4,108.4H6c1.2,0,1.5,0.5,1.5,1.7c0,0.9-0.1,1.4-0.7,1.7v0c0.7,0.2,0.8,0.7,0.8,1.9c0,1.3-0.4,1.9-1.6,1.9
		H3.4V108.4z M4,111.6h2c0.7,0,0.9-0.5,0.9-1.2c0-0.7,0-1.2-0.8-1.2H4V111.6z M4,115h1.8c1,0,1.1-0.3,1.1-1.3s-0.1-1.3-1.1-1.3H4
		V115z"/>
	<path class="st2" d="M12.2,114.1H9.3l-0.4,1.5H8.2l2.1-7.2h0.9l2.1,7.2h-0.7L12.2,114.1z M10.8,109.1L10.8,109.1l-1.3,4.3H12
		L10.8,109.1z"/>
	<path class="st2" d="M14,108.4h2.6c2,0,2,1.2,2,3.3c0,2.6-0.1,3.9-2.1,3.9H14V108.4z M14.6,115h2c1.1,0,1.3-0.6,1.3-2.9
		c0-2.4-0.2-2.9-1.3-2.9h-2V115z"/>
	<path class="st2" d="M23.1,114.1h-2.9l-0.4,1.5h-0.7l2.1-7.2h0.9l2.1,7.2h-0.7L23.1,114.1z M21.7,109.1L21.7,109.1l-1.3,4.3h2.5
		L21.7,109.1z"/>
	<path class="st2" d="M24.9,108.4h1l3,6.5h0v-6.5h0.6v7.2h-1l-3-6.5h0v6.5h-0.6V108.4z"/>
	<path class="st2" d="M33.2,108.4H36c1.1,0,1.4,0.9,1.4,2.2c0,1.9-0.7,2.2-1.7,2.2h-1.8v2.8h-0.6V108.4z M33.9,112.1h1.9
		c0.8,0,1-0.3,1-1.5c0-1.3-0.2-1.5-0.9-1.5h-2V112.1z"/>
	<path class="st2" d="M38.2,108.4h3.6v0.7h-2.9v2.4h2.8v0.7h-2.8v2.7h2.9v0.7h-3.6V108.4z"/>
	<path class="st2" d="M42.8,108.4h1l3,6.5h0v-6.5h0.6v7.2h-1l-3-6.5h0v6.5h-0.6V108.4z"/>
	<path class="st2" d="M50.7,112.1h2.4v1.6c0,1.9-0.8,2-2.2,2c-1.8,0-2.4-0.4-2.4-2.5v-2.4c0-2.1,0.6-2.5,2.4-2.5
		c1.3,0,2.2,0.1,2.2,1.5v0.7h-0.6v-0.3c0-1.1-0.2-1.3-1.6-1.3c-1.5,0-1.7,0.2-1.7,1.8v2.4c0,1.6,0.2,1.8,1.7,1.8
		c1.3,0,1.6,0,1.6-1.5v-0.7h-1.7V112.1z"/>
	<path class="st2" d="M54,108.4h0.6v3.1h0.6l2.3-3.1h0.8l-2.5,3.5l2.8,3.7h-0.8l-2.5-3.4h-0.6v3.4H54V108.4z"/>
	<path class="st2" d="M62.5,114.1h-2.9l-0.4,1.5h-0.7l2.1-7.2h0.9l2.1,7.2h-0.7L62.5,114.1z M61.1,109.1L61.1,109.1l-1.3,4.3h2.5
		L61.1,109.1z"/>
	<path class="st2" d="M66.8,108.4h0.6v5.7c0,1.3-0.6,1.6-1.7,1.6c-1.1,0-1.7-0.3-1.7-1.6v-1.1h0.6v1c0,0.8,0.3,0.9,1.1,0.9
		c0.8,0,1.1-0.2,1.1-0.9V108.4z"/>
	<path class="st2" d="M68.7,108.4h0.6v7.2h-0.6V108.4z"/>
	<path class="st2" d="M74.1,114.1h-2.9l-0.4,1.5h-0.7l2.1-7.2h0.9l2.1,7.2h-0.7L74.1,114.1z M72.7,109.1L72.7,109.1l-1.3,4.3h2.5
		L72.7,109.1z"/>
	<path class="st2" d="M75.9,108.4h1l3,6.5h0v-6.5h0.6v7.2h-1l-3-6.5h0v6.5h-0.6V108.4z"/>
	<path class="st2" d="M84.2,108.4h2.6c2,0,2,1.2,2,3.3c0,2.6-0.1,3.9-2.1,3.9h-2.5V108.4z M84.9,115h2c1.1,0,1.3-0.6,1.3-2.9
		c0-2.4-0.2-2.9-1.3-2.9h-2V115z"/>
	<path class="st2" d="M93.4,114.1h-2.9l-0.4,1.5h-0.7l2.1-7.2h0.9l2.1,7.2h-0.7L93.4,114.1z M92,109.1L92,109.1l-1.3,4.3h2.5
		L92,109.1z"/>
	<path class="st2" d="M95.1,108.4h1l3,6.5h0v-6.5h0.6v7.2h-1l-3-6.5h0v6.5h-0.6V108.4z"/>
	<path class="st2" d="M103.5,108.4h2.8c1.1,0,1.4,0.9,1.4,2.2c0,1.9-0.7,2.2-1.7,2.2h-1.8v2.8h-0.6V108.4z M104.2,112.1h1.9
		c0.8,0,1-0.3,1-1.5c0-1.3-0.2-1.5-0.9-1.5h-2V112.1z"/>
	<path class="st2" d="M108.5,108.4h3.6v0.7h-2.9v2.4h2.8v0.7h-2.8v2.7h2.9v0.7h-3.6V108.4z"/>
	<path class="st2" d="M113.1,108.4h1l3,6.5h0v-6.5h0.6v7.2h-1l-3-6.5h0v6.5h-0.6V108.4z"/>
	<path class="st2" d="M118.9,108.4h3.6v0.7h-2.9v2.4h2.8v0.7h-2.8v2.7h2.9v0.7h-3.6V108.4z"/>
	<path class="st2" d="M123.5,108.4h2.7c1.2,0,1.6,0.4,1.6,2c0,1.3-0.2,1.7-0.8,1.9v0c0.5,0.2,0.7,0.6,0.7,1.3v2H127V114
		c0-1-0.2-1.3-1.3-1.3h-1.7v2.9h-0.6V108.4z M124.1,112.1h2.1c0.7,0,1-0.5,1-1.5c0-1.4-0.2-1.5-1.2-1.5h-1.9V112.1z"/>
	<path class="st2" d="M132.4,114.1h-2.9l-0.4,1.5h-0.7l2.1-7.2h0.9l2.1,7.2h-0.7L132.4,114.1z M131.1,109.1L131.1,109.1l-1.3,4.3
		h2.5L131.1,109.1z"/>
	<path class="st2" d="M134.2,108.4h2.8c1.1,0,1.4,0.9,1.4,2.2c0,1.9-0.7,2.2-1.7,2.2h-1.8v2.8h-0.6V108.4z M134.9,112.1h1.9
		c0.8,0,1-0.3,1-1.5c0-1.3-0.2-1.5-0.9-1.5h-2V112.1z"/>
	<path class="st2" d="M142.3,114.1h-2.9l-0.4,1.5h-0.7l2.1-7.2h0.9l2.1,7.2h-0.7L142.3,114.1z M140.9,109.1L140.9,109.1l-1.3,4.3
		h2.5L140.9,109.1z"/>
	<path class="st2" d="M144.1,108.4h1l3,6.5h0v-6.5h0.6v7.2h-1l-3-6.5h0v6.5h-0.6V108.4z"/>
	<path class="st2" d="M153.8,109.1H152v-0.7h4.3v0.7h-1.8v6.5h-0.6V109.1z"/>
	<path class="st2" d="M156.9,108.4h3.6v0.7h-2.9v2.4h2.8v0.7h-2.8v2.7h2.9v0.7h-3.6V108.4z"/>
	<path class="st2" d="M161.5,108.4h0.6v3.1h0.6l2.3-3.1h0.8l-2.5,3.5l2.8,3.7h-0.8l-2.5-3.4h-0.6v3.4h-0.6V108.4z"/>
	<path class="st2" d="M166.4,108.4h1l3,6.5h0v-6.5h0.6v7.2h-1l-3-6.5h0v6.5h-0.6V108.4z"/>
	<path class="st2" d="M172.1,110.8c0-2.1,0.6-2.5,2.4-2.5s2.3,0.4,2.3,2.5v2.4c0,2.1-0.6,2.5-2.3,2.5s-2.4-0.4-2.4-2.5V110.8z
		 M176.2,110.9c0-1.6-0.2-1.8-1.7-1.8s-1.7,0.2-1.7,1.8v2.4c0,1.6,0.2,1.8,1.7,1.8s1.7-0.2,1.7-1.8V110.9z"/>
	<path class="st2" d="M177.9,108.4h0.6v6.5h2.8v0.8h-3.5V108.4z"/>
	<path class="st2" d="M182,110.8c0-2.1,0.6-2.5,2.4-2.5s2.3,0.4,2.3,2.5v2.4c0,2.1-0.6,2.5-2.3,2.5s-2.4-0.4-2.4-2.5V110.8z
		 M186.1,110.9c0-1.6-0.2-1.8-1.7-1.8s-1.7,0.2-1.7,1.8v2.4c0,1.6,0.2,1.8,1.7,1.8s1.7-0.2,1.7-1.8V110.9z"/>
	<path class="st2" d="M189.9,112.1h2.4v1.6c0,1.9-0.8,2-2.2,2c-1.8,0-2.4-0.4-2.4-2.5v-2.4c0-2.1,0.6-2.5,2.4-2.5
		c1.3,0,2.2,0.1,2.2,1.5v0.7h-0.6v-0.3c0-1.1-0.2-1.3-1.6-1.3c-1.5,0-1.7,0.2-1.7,1.8v2.4c0,1.6,0.2,1.8,1.7,1.8
		c1.3,0,1.6,0,1.6-1.5v-0.7h-1.7V112.1z"/>
	<path class="st2" d="M193.4,108.4h0.6v7.2h-0.6V108.4z"/>
</g>
</svg>
