<?xml version="1.0" encoding="utf-8"?>
<!-- Generator: Adobe Illustrator 21.0.0, SVG Export Plug-In . SVG Version: 6.00 Build 0)  -->
<svg version="1.1" id="Layer_1" xmlns="http://www.w3.org/2000/svg" xmlns:xlink="http://www.w3.org/1999/xlink" x="0px" y="0px"
	 viewBox="0 0 107.3 120.7" style="enable-background:new 0 0 107.3 120.7;" xml:space="preserve">
<style type="text/css">
	.st0{fill:#E5E5E5;}
</style>
<g>
	<path class="st0" d="M51.1,21.1v28.2l0.1,0.1l16,16v7.1l4.9,5h4.5l10.2,10.2h3.9c0,1.5,1.2,2.7,2.7,2.7c1.5,0,2.7-1.2,2.7-2.7
		c0-1.5-1.2-2.7-2.7-2.7c-1.4,0-2.5,1-2.7,2.3h-3.7L76.7,76.9h-4.5l-4.7-4.7v-7.1L67.5,65l-16-16V20.9l-0.1-0.1L31.8,1.2H0v0.4h31.6
		L51.1,21.1z"/>
	<path class="st0" d="M54,45.2L54,45.2l19.1,19.1v1.8c-1.5,0-2.7,1.2-2.7,2.7c0,1.5,1.2,2.7,2.7,2.7c1.5,0,2.7-1.2,2.7-2.7
		c0-1.4-1-2.5-2.3-2.7v-2l-0.1-0.1l-19-19V19.7L34.7,0h-0.6L54,19.8V45.2z"/>
	<path class="st0" d="M59,41.8L59,41.8L81,63.7v4.7l2.5,2.5c0,0.1,0,0.2,0,0.4c0,1.5,1.2,2.7,2.7,2.7c1,0,1.8-0.5,2.3-1.3H98v-0.4
		h-9.4c0.1-0.3,0.2-0.6,0.2-1c0-1.5-1.2-2.7-2.7-2.7c-1.2,0-2.2,0.8-2.6,1.9l-2.2-2.2v-4.7L67.9,50.1h17.7l0,2.9
		c0,0.7,0.5,1.2,1.2,1.2l4.4,0v6.6c-0.2-0.1-0.5-0.1-0.8-0.1c-1.5,0-2.7,1.2-2.7,2.7c0,1.5,1.2,2.7,2.7,2.7c1.5,0,2.7-1.2,2.7-2.7
		c0-1.1-0.6-2-1.5-2.4v-6.7l0.8,0c0.7,0,1.2-0.5,1.2-1.2l0-5.7c0-0.7-0.5-1.2-1.2-1.2l-5.7,0c-0.7,0-1.2,0.5-1.2,1.2l0,2.3H67.5
		l-8.1-8.1V14.8l-0.1-0.1L44.7,0h-0.6L59,14.9V41.8z"/>
	<path class="st0" d="M45.4,24.2v28.6L61.5,69v15.1c-1.4,0.1-2.6,1.2-2.6,2.7c0,1.5,1.2,2.7,2.7,2.7c1.5,0,2.7-1.2,2.7-2.7
		c0-1.4-1-2.5-2.4-2.7V68.8l-0.1-0.1L45.8,52.6V24L45.7,24l-17-17H0v0.4h28.5L45.4,24.2z"/>
	<path class="st0" d="M42.4,25.7v28.1l0.1,0.1l13.8,13.8v6c-1.4,0.1-2.5,1.2-2.5,2.7c0,1.5,1.2,2.7,2.7,2.7c1.5,0,2.7-1.2,2.7-2.7
		c0-1.4-1.1-2.6-2.5-2.7v-6.2l-0.1-0.1L42.8,53.7V25.5l-0.1-0.1L27.1,9.8H0v0.4h26.9L42.4,25.7z"/>
	<path class="st0" d="M39.8,27v28.1l5.3,5.3v3c-1.4,0.1-2.5,1.2-2.5,2.7c0,1.5,1.2,2.7,2.7,2.7c1.5,0,2.7-1.2,2.7-2.7
		c0-1.4-1.1-2.6-2.5-2.7v-3.2l-5.3-5.3V26.8l-0.1-0.1L25.6,12.3H0v0.4h25.5L39.8,27z"/>
	<path class="st0" d="M106.1,96l-1.6,0v-9.5l-6.1-6.1H85.2l-5.6-5.6v-9.5L57.3,42.9V17.4l-0.1-0.1L39.9,0h-0.6l17.6,17.6V43l0.1,0.1
		l22.3,22.3v9.5l5.9,5.9h13.2l5.9,5.9v9.4l-3.7,0c-0.7,0-1.2,0.5-1.2,1.2l0,5.7c0,0.7,0.5,1.2,1.2,1.2l5.7,0c0.7,0,1.2-0.5,1.2-1.2
		l0-5.7C107.3,96.5,106.8,96,106.1,96z"/>
	<path class="st0" d="M65.8,103.7c-1.2,0-2.2,0.8-2.6,1.9h-6.5l0-3.8c0-0.7-0.5-1.2-1.2-1.2l-4.7,0v-0.1l-5.6-5.6V83.4l-16-16V51.3
		l-0.1-0.1L0,22.1v0.6l28.8,28.8v16.1l16,16V95l5.6,5.6l-0.5,0c-0.7,0-1.2,0.5-1.2,1.2l0,5.7c0,0.7,0.5,1.2,1.2,1.2l5.7,0
		c0.7,0,1.2-0.5,1.2-1.2l0-1.5h6.4c0,0.1,0,0.3,0,0.4c0,1.5,1.2,2.7,2.7,2.7c1.5,0,2.7-1.2,2.7-2.7C68.5,105,67.3,103.7,65.8,103.7z
		"/>
	<path class="st0" d="M37.9,84c-0.7,0-1.3,0.3-1.8,0.7l-11-11V52.4l-25-25V28l24.6,24.6v21.3L35.8,85c-0.4,0.5-0.6,1-0.6,1.7
		c0,1.5,1.2,2.7,2.7,2.7c1.5,0,2.7-1.2,2.7-2.7C40.6,85.3,39.4,84,37.9,84z"/>
	<path class="st0" d="M99.2,77.5l6.5,0c0,0,0.1,0,0.1,0c0,0,0.3,0,0.4-0.1c0.4-0.2,0.7-0.6,0.7-1.1l0-6.5c0-0.7-0.5-1.2-1.2-1.2
		l-6.5,0c-0.7,0-1.2,0.5-1.2,1.2l0,6.5C98,77,98.5,77.5,99.2,77.5z"/>
	<path class="st0" d="M77.3,90.5l-5.7,0c-0.7,0-1.2,0.5-1.2,1.2l0,4.1H51.5l-3.4-3.4v-13c1.4-0.1,2.5-1.2,2.5-2.7
		c0-1.5-1.2-2.7-2.7-2.7c-0.9,0-1.6,0.4-2.1,1l-4-4V60.8l-4.5-4.5V28.2L24.2,15H0v0.4h24.1L37,28.3v28.1l4.5,4.5v10.3l4.2,4.2
		c-0.2,0.4-0.4,0.8-0.4,1.3c0,1.4,1.1,2.6,2.4,2.7v13.2l3.6,3.6h19.1l0,1.2c0,0.7,0.5,1.2,1.2,1.2l5.7,0c0.7,0,1.2-0.5,1.2-1.2
		l0-5.7C78.6,91.1,78,90.5,77.3,90.5z"/>
	<path class="st0" d="M99.9,112.6l-5.7,0c-0.7,0-1.2,0.5-1.2,1.2l0,0.2l-0.9-0.9v-16L92,97.1L81.2,86.3h-5.5l-1.5-1.5
		c0.6-0.5,0.9-1.2,0.9-2c0-1.5-1.2-2.7-2.7-2.7c-0.8,0-1.6,0.4-2.1,0.9l-6-6v-7.9L64.3,67L48.5,51.2V22.7l-0.1-0.1L30.1,4.3H0v0.4
		h29.9l18.2,18.2v28.6l0.1,0.1l15.8,15.8v7.9l6.2,6.2c-0.3,0.4-0.4,0.9-0.4,1.4c0,1.5,1.2,2.7,2.7,2.7c0.5,0,1-0.2,1.4-0.4l1.7,1.7
		H81l10.6,10.6v16l1.3,1.3l0,4.9c0,0.7,0.5,1.2,1.2,1.2l5.7,0c0.7,0,1.2-0.5,1.2-1.2l0-5.7C101.1,113.2,100.5,112.6,99.9,112.6z"/>
</g>
</svg>
