<?xml version="1.0" encoding="utf-8"?>
<!-- Generator: Adobe Illustrator 21.0.0, SVG Export Plug-In . SVG Version: 6.00 Build 0)  -->
<svg version="1.1" id="Layer_1" xmlns="http://www.w3.org/2000/svg" xmlns:xlink="http://www.w3.org/1999/xlink" x="0px" y="0px"
	 viewBox="0 0 144.7 108.8" style="enable-background:new 0 0 144.7 108.8;" xml:space="preserve">
<style type="text/css">
	.st0{fill:#DDDDDD;}
</style>
<g>
	<path class="st0" d="M51.4,16.1L27.7,39.8v14.5L15.6,66.4c-0.2-0.1-0.5-0.1-0.7-0.1c-1.5,0-2.7,1.2-2.7,2.7c0,1.1,0.7,2.1,1.7,2.5
		V99l-1.9,1.9c-0.2-0.4-0.6-0.6-1-0.6H5.3c-0.7,0-1.2,0.5-1.2,1.2v5.7c0,0.7,0.5,1.2,1.2,1.2H11c0.7,0,1.2-0.5,1.2-1.2v-5.7
		c0-0.1,0-0.1,0-0.2l2.2-2.2V71.5c0.2,0,0.4,0.1,0.6,0.1c1.5,0,2.7-1.2,2.7-2.7c0-1.1-0.6-2-1.6-2.4l12-12V40l23.7-23.7v-7h-0.4
		V16.1z"/>
	<path class="st0" d="M73.7,17L71,14.3v-5h-0.4v5.2l2.7,2.7v31.3L51.5,70.2v7.2c-1.3,0.2-2.3,1.3-2.3,2.6c0,1.5,1.2,2.7,2.7,2.7
		s2.7-1.2,2.7-2.7s-1.2-2.7-2.7-2.7v-7l15-14.9v17.9l-5.1,5.1c-1.1-0.9-2.6-0.9-3.6,0.1c-1.1,1-1.1,2.8,0,3.8c1,1.1,2.8,1.1,3.8,0
		c1-1,1.1-2.6,0.1-3.7l5.2-5.2V55l6.4-6.4V17z"/>
	<path class="st0" d="M48.9,15.2L25,39.1v6.5l-5.6,5.6c-0.5-0.4-1.1-0.7-1.8-0.7c-1.5,0-2.7,1.2-2.7,2.7s1.2,2.7,2.7,2.7
		s2.7-1.2,2.7-2.7c0-0.6-0.2-1.2-0.6-1.7l5.8-5.8v-6.5l23.8-23.8V9.3h-0.4V15.2z"/>
	<path class="st0" d="M54.5,18.5L33.3,39.7v7.1c-1,0.4-1.8,1.3-1.8,2.5c0,1.5,1.2,2.7,2.7,2.7s2.7-1.2,2.7-2.7s-1.2-2.7-2.7-2.7
		c-0.2,0-0.4,0-0.5,0.1V40l21.2-21.3V9.3h-0.4V18.5z"/>
	<path class="st0" d="M57.2,25.1L46.5,35.8v2.7h-3.3c-0.7,0-1.2,0.5-1.2,1.2v5.7c0,0.7,0.5,1.2,1.2,1.2h5.7c0.7,0,1.2-0.5,1.2-1.2
		v-5.7c0-0.7-0.5-1.2-1.2-1.2h-2V36l10.7-10.7v-16h-0.4V25.1z"/>
	<path class="st0" d="M60,43.2L47.8,55.4h-3.2c-0.1-1.4-1.3-2.5-2.7-2.5c-1.5,0-2.7,1.2-2.7,2.7s1.2,2.7,2.7,2.7
		c1.4,0,2.5-1.1,2.6-2.5h3.3l0.1-0.1l12.5-12.3V9.3H60V43.2z"/>
	<path class="st0" d="M62.5,44.8L46.1,61.2H36l-4.3,4.3h-1C30.6,64.1,29.5,63,28,63s-2.7,1.2-2.7,2.7s1.2,2.7,2.7,2.7
		c1.4,0,2.6-1.1,2.7-2.5h1.2l4.3-4.3h10.1l0.1-0.1l16.5-16.6V9.3h-0.4V44.8z"/>
	<path class="st0" d="M65.2,46.8L45.3,66.7h-1.6v-0.1c-0.1-1.4-1.2-2.5-2.7-2.5s-2.7,1.2-2.7,2.7c0,0.2,0,0.4,0.1,0.6L30,75.8
		c-0.2-0.2-0.5-0.3-0.8-0.3h-5.7c-0.7,0-1.2,0.5-1.2,1.2v5.7c0,0.7,0.5,1.2,1.2,1.2h5.7c0.7,0,1.2-0.5,1.2-1.2v-5.7
		c0-0.2-0.1-0.4-0.2-0.6l8.3-8.3c0.4,1,1.4,1.7,2.5,1.7c1.4,0,2.6-1.1,2.7-2.5h1.8l20.1-20.1V9.3h-0.4V46.8z"/>
	<path class="st0" d="M67.9,49.5L44.6,72.8v16.3L42,91.7c-0.2-0.2-0.5-0.3-0.7-0.3h-5.7c-0.7,0-1.2,0.5-1.2,1.2v2.3h-6.5L26,96.8
		c-0.5-0.4-1.1-0.7-1.8-0.7c-1.5,0-2.7,1.2-2.7,2.7s1.2,2.7,2.7,2.7s2.7-1.2,2.7-2.7c0-0.7-0.2-1.3-0.6-1.7l1.8-1.8h6.3v2.9
		c0,0.7,0.5,1.2,1.2,1.2h5.7c0.7,0,1.2-0.5,1.2-1.2v-5.7c0-0.2-0.1-0.4-0.2-0.6l2.7-2.7V73l23.3-23.3V9.3h-0.4V49.5z"/>
	<path class="st0" d="M42,9.5L22.2,29.4H11.6c-0.1-1.4-1.2-2.5-2.7-2.5s-2.7,1.2-2.7,2.7s1.2,2.7,2.7,2.7c1.4,0,2.6-1.1,2.7-2.5
		h10.7l0.1-0.1l20-20V9.3H42V9.5z"/>
	<path class="st0" d="M36.9,86.3c1.5,0,2.7-1.2,2.7-2.7s-1.2-2.7-2.7-2.7s-2.7,1.2-2.7,2.7S35.4,86.3,36.9,86.3z"/>
	<path class="st0" d="M45.7,14.3l-33,33V61l-5.9,5.9H1.2c-0.7,0-1.2,0.5-1.2,1.2v5.7c-0.1,0.6,0.5,1.1,1.1,1.1h5.7
		c0.7,0,1.2-0.5,1.2-1.2V68c0-0.5-0.3-1-0.8-1.1l5.8-5.8V47.4l33-33V9.3h-0.3V14.3z"/>
	<rect x="51.4" y="0" class="st0" width="0.4" height="9.3"/>
	<rect x="70.6" y="0" class="st0" width="0.4" height="9.3"/>
	<rect x="48.9" y="0" class="st0" width="0.4" height="9.3"/>
	<rect x="54.5" y="0" class="st0" width="0.4" height="9.3"/>
	<rect x="57.2" y="0" class="st0" width="0.4" height="9.3"/>
	<rect x="60" y="0" class="st0" width="0.4" height="9.3"/>
	<rect x="62.5" y="0" class="st0" width="0.4" height="9.3"/>
	<rect x="65.2" y="0" class="st0" width="0.4" height="9.3"/>
	<rect x="67.9" y="0" class="st0" width="0.4" height="9.3"/>
	<rect x="42" y="0" class="st0" width="0.4" height="9.3"/>
	<rect x="45.7" y="0" class="st0" width="0.3" height="9.3"/>
	<path class="st0" d="M117,54.4l12.1-12.1c0.2,0.1,0.5,0.1,0.7,0.1c1.5,0,2.7-1.2,2.7-2.7c0-1.1-0.7-2.1-1.7-2.5V9.7l1.9-1.9
		c0.2,0.4,0.6,0.6,1,0.6h5.7c0.7,0,1.2-0.5,1.2-1.2V1.5c0-0.7-0.5-1.2-1.2-1.2h-5.7c-0.7,0-1.2,0.5-1.2,1.2v5.7c0,0.1,0,0.1,0,0.2
		l-2.2,2.2v27.6c-0.2,0-0.4-0.1-0.6-0.1c-1.5,0-2.7,1.2-2.7,2.7c0,1.1,0.6,2,1.6,2.4l-12,12v14.5L92.9,92.4v7h0.4v-6.8L117,68.9
		V54.4z"/>
	<path class="st0" d="M71.4,60.2l21.8-21.7v-7.2c1.3-0.2,2.3-1.3,2.3-2.6c0-1.5-1.2-2.7-2.7-2.7s-2.7,1.2-2.7,2.7s1.2,2.7,2.7,2.7v7
		l-15,14.9V35.4l5.1-5.1c1.1,0.9,2.6,0.9,3.6-0.1c1.1-1,1.1-2.8,0-3.8c-1-1.1-2.8-1.1-3.8,0c-1,1-1.1,2.6-0.1,3.7l-5.2,5.2v18.4
		L71,60.1v31.6l2.7,2.7v5h0.4v-5.2l-2.7-2.7V60.2z"/>
	<path class="st0" d="M119.7,63.1l5.6-5.6c0.5,0.4,1.1,0.7,1.8,0.7c1.5,0,2.7-1.2,2.7-2.7s-1.2-2.7-2.7-2.7s-2.7,1.2-2.7,2.7
		c0,0.6,0.2,1.2,0.6,1.7l-5.8,5.8v6.5L95.4,93.3v6.1h0.4v-5.9l23.9-23.9V63.1z"/>
	<path class="st0" d="M111.4,61.9c1-0.4,1.8-1.3,1.8-2.5c0-1.5-1.2-2.7-2.7-2.7s-2.7,1.2-2.7,2.7s1.2,2.7,2.7,2.7
		c0.2,0,0.4,0,0.5-0.1v6.7L89.8,90v9.4h0.4v-9.2L111.4,69V61.9z"/>
	<path class="st0" d="M98.2,70.2h3.3c0.7,0,1.2-0.5,1.2-1.2v-5.7c0-0.7-0.5-1.2-1.2-1.2h-5.7c-0.7,0-1.2,0.5-1.2,1.2V69
		c0,0.7,0.5,1.2,1.2,1.2h2v2.5L87.1,83.4v16h0.4V83.6l10.7-10.7V70.2z"/>
	<path class="st0" d="M100.1,53.3c0.1,1.4,1.3,2.5,2.7,2.5c1.5,0,2.7-1.2,2.7-2.7s-1.2-2.7-2.7-2.7c-1.4,0-2.5,1.1-2.6,2.5h-3.3
		L96.8,53L84.3,65.3v34.1h0.4V65.5l12.2-12.2H100.1z"/>
	<path class="st0" d="M108.7,47.5l4.3-4.3h1c0.1,1.4,1.2,2.5,2.7,2.5s2.7-1.2,2.7-2.7s-1.2-2.7-2.7-2.7c-1.4,0-2.6,1.1-2.7,2.5h-1.2
		l-4.3,4.3H98.4l-0.1,0.1L81.8,63.8v35.6h0.4V63.9l16.4-16.4H108.7z"/>
	<path class="st0" d="M101,42v0.1c0.1,1.4,1.2,2.5,2.7,2.5s2.7-1.2,2.7-2.7c0-0.2,0-0.4-0.1-0.6l8.4-8.4c0.2,0.2,0.5,0.3,0.8,0.3
		h5.7c0.7,0,1.2-0.5,1.2-1.2v-5.7c0-0.7-0.5-1.2-1.2-1.2h-5.7c-0.7,0-1.2,0.5-1.2,1.2V32c0,0.2,0.1,0.4,0.2,0.6l-8.3,8.3
		c-0.4-1-1.4-1.7-2.5-1.7c-1.4,0-2.6,1.1-2.7,2.5h-1.8L79.1,61.8v37.6h0.4V61.9L99.4,42H101z"/>
	<path class="st0" d="M100.1,19.6l2.6-2.6c0.2,0.2,0.5,0.3,0.7,0.3h5.7c0.7,0,1.2-0.5,1.2-1.2v-2.3h6.5l1.9-1.9
		c0.5,0.4,1.1,0.7,1.8,0.7c1.5,0,2.7-1.2,2.7-2.7s-1.2-2.7-2.7-2.7s-2.7,1.2-2.7,2.7c0,0.7,0.2,1.3,0.6,1.7l-1.8,1.8h-6.3v-2.9
		c0-0.7-0.5-1.2-1.2-1.2h-5.7c-0.7,0-1.2,0.5-1.2,1.2v5.7c0,0.2,0.1,0.4,0.2,0.6l-2.7,2.7v16.2L76.4,59v40.4h0.4V59.2l23.3-23.3
		V19.6z"/>
	<path class="st0" d="M135.8,76.4c-1.4,0-2.6,1.1-2.7,2.5h-10.7l-0.1,0.1l-20,20v0.4h0.4v-0.2l19.8-19.9h10.6
		c0.1,1.4,1.2,2.5,2.7,2.5s2.7-1.2,2.7-2.7S137.3,76.4,135.8,76.4z"/>
	<path class="st0" d="M107.8,22.4c-1.5,0-2.7,1.2-2.7,2.7s1.2,2.7,2.7,2.7s2.7-1.2,2.7-2.7S109.3,22.4,107.8,22.4z"/>
	<path class="st0" d="M143.6,33.8h-5.7c-0.7,0-1.2,0.5-1.2,1.2v5.7c0,0.5,0.3,1,0.8,1.1l-5.8,5.8v13.7l-33,33v5.1H99v-5l33-33V47.7
		l5.9-5.9h5.6c0.7,0,1.2-0.5,1.2-1.2v-5.7C144.8,34.3,144.2,33.8,143.6,33.8z"/>
	<rect x="92.9" y="99.4" class="st0" width="0.4" height="9.4"/>
	<rect x="73.7" y="99.4" class="st0" width="0.4" height="9.4"/>
	<rect x="95.4" y="99.4" class="st0" width="0.4" height="9.4"/>
	<rect x="89.8" y="99.4" class="st0" width="0.4" height="9.4"/>
	<rect x="87.1" y="99.4" class="st0" width="0.4" height="9.4"/>
	<rect x="84.3" y="99.4" class="st0" width="0.4" height="9.4"/>
	<rect x="81.8" y="99.4" class="st0" width="0.4" height="9.4"/>
	<rect x="79.1" y="99.4" class="st0" width="0.4" height="9.4"/>
	<rect x="76.4" y="99.4" class="st0" width="0.4" height="9.4"/>
	<rect x="102.3" y="99.4" class="st0" width="0.4" height="9.4"/>
	<rect x="98.7" y="99.4" class="st0" width="0.3" height="9.4"/>
</g>
</svg>
