<?xml version="1.0" encoding="utf-8"?>
<!-- Generator: Adobe Illustrator 21.0.0, SVG Export Plug-In . SVG Version: 6.00 Build 0)  -->
<svg version="1.1" id="Layer_1" xmlns="http://www.w3.org/2000/svg" xmlns:xlink="http://www.w3.org/1999/xlink" x="0px" y="0px"
	 viewBox="0 0 114.5 73.7" style="enable-background:new 0 0 114.5 73.7;" xml:space="preserve">
<style type="text/css">
	.st0{fill:#FFFFFF;}
</style>
<g>
	<path class="st0" d="M54.1,27.7L42,15.6c0.1-0.2,0.1-0.5,0.1-0.7c0-1.5-1.2-2.7-2.7-2.7c-1.1,0-2.1,0.7-2.5,1.7H9.4L7.5,12
		c0.4-0.2,0.6-0.6,0.6-1V5.3c0-0.7-0.5-1.2-1.2-1.2H1.2C0.5,4.1,0,4.6,0,5.3L0,11c0,0.7,0.5,1.2,1.2,1.2h5.7c0.1,0,0.1,0,0.2,0
		l2.2,2.2h27.6c0,0.2-0.1,0.4-0.1,0.6c0,1.5,1.2,2.7,2.7,2.7c1.1,0,2-0.6,2.4-1.6l12,12h14.5l23.7,23.7h22.3v-0.4H92.3L68.6,27.7
		H54.1z"/>
	<path class="st0" d="M59.9,73.3L38.2,51.5H31c-0.2-1.3-1.3-2.3-2.6-2.3c-1.5,0-2.7,1.2-2.7,2.7s1.2,2.7,2.7,2.7s2.7-1.2,2.7-2.7h7
		l14.9,15H35.1L30,61.8c0.9-1.1,0.9-2.6-0.1-3.6c-1-1.1-2.8-1.1-3.8,0c-1.1,1-1.1,2.8,0,3.8c1,1,2.6,1.1,3.7,0.1l5.2,5.2l0,0l0,0
		h18.4l6.4,6.4h31.6l2.7-2.7h20.4v-0.4H93.9l-2.7,2.7C91.2,73.3,59.9,73.3,59.9,73.3z"/>
	<path class="st0" d="M62.8,25l-5.6-5.6c0.4-0.5,0.7-1.1,0.7-1.8c0-1.5-1.2-2.7-2.7-2.7s-2.7,1.2-2.7,2.7s1.2,2.7,2.7,2.7
		c0.6,0,1.2-0.2,1.7-0.6l5.8,5.8h6.5L93,49.3h21.4v-0.4H93.2L69.3,25C69.3,25,62.8,25,62.8,25z"/>
	<path class="st0" d="M61.6,33.3c-0.4-1-1.3-1.8-2.5-1.8c-1.5,0-2.7,1.2-2.7,2.7s1.2,2.7,2.7,2.7s2.7-1.2,2.7-2.7
		c0-0.2,0-0.4-0.1-0.5h6.7l21.3,21.2h24.7v-0.4H89.9L68.7,33.3H61.6z"/>
	<path class="st0" d="M69.9,46.5v-3.3c0-0.7-0.5-1.2-1.2-1.2H63c-0.7,0-1.2,0.5-1.2,1.2v5.7c0,0.7,0.5,1.2,1.2,1.2h5.7
		c0.7,0,1.2-0.5,1.2-1.2v-2h2.5l10.7,10.7h31.3v-0.4H83.3L72.6,46.5H69.9z"/>
	<path class="st0" d="M53,44.6c1.4-0.1,2.5-1.3,2.5-2.7c0-1.5-1.2-2.7-2.7-2.7s-2.7,1.2-2.7,2.7c0,1.4,1.1,2.5,2.5,2.6v3.3l0.1,0.1
		L65,60.4h49.4V60H65.2L53,47.8V44.6z"/>
	<path class="st0" d="M47.2,36l-4.3-4.3v-1c1.4-0.1,2.5-1.2,2.5-2.7s-1.2-2.7-2.7-2.7S40,26.5,40,28c0,1.4,1.1,2.6,2.5,2.7v1.2
		l4.3,4.3v10.1l0.1,0.1l16.6,16.5h51v-0.4H63.6L47.2,46.1C47.2,46.1,47.2,36,47.2,36z"/>
	<path class="st0" d="M41.8,43.7c1.4-0.1,2.5-1.2,2.5-2.7s-1.2-2.7-2.7-2.7c-0.2,0-0.4,0-0.6,0.1L32.6,30c0.2-0.2,0.3-0.5,0.3-0.8
		v-5.7c0-0.7-0.5-1.2-1.2-1.2H26c-0.7,0-1.2,0.5-1.2,1.2v5.7c0,0.7,0.5,1.2,1.2,1.2h5.7c0.2,0,0.4-0.1,0.6-0.2l8.3,8.3
		c-1,0.4-1.7,1.4-1.7,2.5c0,1.4,1.1,2.6,2.5,2.7v1.8l20.1,20.1h53v-0.4H61.6L41.7,45.3v-1.6H41.8z"/>
	<path class="st0" d="M19.3,44.6L16.7,42c0.2-0.2,0.3-0.5,0.3-0.7v-5.7c0-0.7-0.5-1.2-1.2-1.2h-2.3v-6.5L11.6,26
		c0.4-0.5,0.7-1.1,0.7-1.8c0-1.5-1.2-2.7-2.7-2.7s-2.7,1.2-2.7,2.7s1.2,2.7,2.7,2.7c0.7,0,1.3-0.2,1.7-0.6l1.8,1.8v6.3h-2.9
		c-0.7,0-1.2,0.5-1.2,1.2v5.7c0,0.7,0.5,1.2,1.2,1.2h5.7c0.2,0,0.4-0.1,0.6-0.2l2.7,2.7h16.2l23.3,23.3h55.7v-0.4H58.9L35.6,44.6
		C35.6,44.6,19.3,44.6,19.3,44.6z"/>
	<path class="st0" d="M76.1,8.9c0,1.4,1.1,2.6,2.5,2.7v10.7l0.1,0.1l20,20h15.7V42H98.9L79,22.2V11.6c1.4-0.1,2.5-1.2,2.5-2.7
		c0-1.5-1.2-2.7-2.7-2.7C77.3,6.2,76.1,7.4,76.1,8.9z"/>
	<path class="st0" d="M22.1,36.9c0,1.5,1.2,2.7,2.7,2.7s2.7-1.2,2.7-2.7s-1.2-2.7-2.7-2.7C23.3,34.2,22.1,35.4,22.1,36.9z"/>
	<path class="st0" d="M33.5,1.1v5.7C33.5,7.5,34,8,34.7,8h5.7c0.5,0,1-0.3,1.1-0.8l5.8,5.8H61l33,33h20.5v-0.3H94.1l-33-33H47.4
		l-5.9-5.9V1.2C41.5,0.5,41,0,40.3,0l-5.7,0C34-0.1,33.5,0.5,33.5,1.1z"/>
</g>
</svg>
