<?xml version="1.0" encoding="utf-8"?>
<!-- Generator: Adobe Illustrator 21.0.0, SVG Export Plug-In . SVG Version: 6.00 Build 0)  -->
<svg version="1.1" id="Layer_1" xmlns="http://www.w3.org/2000/svg" xmlns:xlink="http://www.w3.org/1999/xlink" x="0px" y="0px"
	 viewBox="0 0 465 388" style="enable-background:new 0 0 465 388;" xml:space="preserve">
<style type="text/css">
	.st0{opacity:0.1;}
	.st1{fill:none;stroke:#2A2A2A;stroke-width:2;stroke-linecap:round;stroke-linejoin:round;stroke-miterlimit:10;}
	.st2{fill:#2A2A2A;}
	.st3{fill:#FFFFFF;stroke:#2A2A2A;stroke-width:2;stroke-linecap:round;stroke-linejoin:round;stroke-miterlimit:10;}
</style>
<g class="st0">
	<g>
		<path class="st1" d="M149.4,51.8c0-4.2,3.4-7.7,7.7-7.7c3.1,0,5.8,1.9,7,4.5c0.7-0.3,1.4-0.5,2.2-0.5c3,0,5.4,2.3,5.6,5.2h-17.5"
			/>
		<path class="st1" d="M273.9,111.1c0-4.2,3.4-7.7,7.7-7.7c3.1,0,5.8,1.9,7,4.5c0.7-0.3,1.4-0.5,2.2-0.5c3,0,5.4,2.3,5.6,5.2h-17.5"
			/>
		<path class="st1" d="M230.2,17.6c0-4.2,3.4-7.7,7.7-7.7c3.1,0,5.8,1.9,7,4.5c0.7-0.3,1.4-0.4,2.2-0.4c3,0,5.4,2.3,5.6,5.2h-17.5"
			/>
		<path class="st1" d="M58.1,83.5c0-4.2-3.4-7.7-7.7-7.7c-3.1,0-5.8,1.9-7,4.5c-0.7-0.3-1.4-0.4-2.2-0.4c-3,0-5.4,2.3-5.6,5.2h17.5"
			/>
		<path class="st1" d="M356.9,53.8c0-4.2-3.4-7.7-7.7-7.7c-3.1,0-5.8,1.9-7,4.5c-0.7-0.3-1.4-0.5-2.2-0.5c-3,0-5.4,2.3-5.6,5.2H352"
			/>
		<path class="st1" d="M416.3,101.1c0-4.2-3.4-7.7-7.7-7.7c-3.1,0-5.8,1.9-7,4.5c-0.7-0.3-1.4-0.5-2.2-0.5c-3,0-5.4,2.3-5.6,5.2
			h17.5"/>
	</g>
	<g>
		<rect x="50.2" y="227.3" class="st1" width="24.8" height="104.1"/>
		<g>
			<polyline class="st1" points="50.3,227.3 75,242.2 50.2,242.2 			"/>
			<polyline class="st1" points="50.3,242.2 75,257.1 50.2,257.1 			"/>
			<polyline class="st1" points="50.3,257.1 75,272 50.2,272 			"/>
			<polyline class="st1" points="50.3,272 75,286.8 50.2,286.8 			"/>
			<polyline class="st1" points="50.3,286.8 75,301.7 50.2,301.7 			"/>
			<polyline class="st1" points="50.3,301.7 75,316.6 50.2,316.6 			"/>
		</g>
		<polyline class="st1" points="50.3,316.6 75,331.5 50.2,331.5 		"/>
		<rect x="55.1" y="223.6" class="st1" width="15.5" height="3.8"/>
	</g>
	<g>
		<polyline class="st1" points="16.2,291.8 16.2,138.3 50.7,138.3 		"/>
		<g>
			<path class="st1" d="M28.9,151H25v-2.8c0-1.1,0.9-2,2-2l0,0c1.1,0,2,0.9,2,2v2.8H28.9z"/>
			<path class="st1" d="M28.9,163.3H25v-2.8c0-1.1,0.9-2,2-2l0,0c1.1,0,2,0.9,2,2v2.8H28.9z"/>
			<path class="st1" d="M28.9,175.6H25v-2.8c0-1.1,0.9-2,2-2l0,0c1.1,0,2,0.9,2,2v2.8H28.9z"/>
			<path class="st1" d="M28.9,187.8H25V185c0-1.1,0.9-2,2-2l0,0c1.1,0,2,0.9,2,2v2.8H28.9z"/>
			<path class="st1" d="M28.9,200.1H25v-2.8c0-1.1,0.9-2,2-2l0,0c1.1,0,2,0.9,2,2v2.8H28.9z"/>
			<path class="st1" d="M28.9,212.3H25v-2.8c0-1.1,0.9-2,2-2l0,0c1.1,0,2,0.9,2,2v2.8H28.9z"/>
			<path class="st1" d="M28.9,224.6H25v-2.8c0-1.1,0.9-2,2-2l0,0c1.1,0,2,0.9,2,2v2.8H28.9z"/>
			<path class="st1" d="M28.9,236.8H25V234c0-1.1,0.9-2,2-2l0,0c1.1,0,2,0.9,2,2v2.8H28.9z"/>
			<g>
				<path class="st1" d="M37.9,151H34v-2.8c0-1.1,0.9-2,2-2l0,0c1.1,0,2,0.9,2,2L37.9,151L37.9,151z"/>
				<path class="st1" d="M37.9,163.3H34v-2.8c0-1.1,0.9-2,2-2l0,0c1.1,0,2,0.9,2,2L37.9,163.3L37.9,163.3z"/>
				<path class="st1" d="M37.9,175.6H34v-2.8c0-1.1,0.9-2,2-2l0,0c1.1,0,2,0.9,2,2L37.9,175.6L37.9,175.6z"/>
				<path class="st1" d="M37.9,187.8H34V185c0-1.1,0.9-2,2-2l0,0c1.1,0,2,0.9,2,2L37.9,187.8L37.9,187.8z"/>
				<path class="st1" d="M37.9,200.1H34v-2.8c0-1.1,0.9-2,2-2l0,0c1.1,0,2,0.9,2,2L37.9,200.1L37.9,200.1z"/>
				<path class="st1" d="M37.9,212.3H34v-2.8c0-1.1,0.9-2,2-2l0,0c1.1,0,2,0.9,2,2L37.9,212.3L37.9,212.3z"/>
				<path class="st1" d="M37.9,224.6H34v-2.8c0-1.1,0.9-2,2-2l0,0c1.1,0,2,0.9,2,2L37.9,224.6L37.9,224.6z"/>
				<path class="st1" d="M37.9,236.8H34V234c0-1.1,0.9-2,2-2l0,0c1.1,0,2,0.9,2,2L37.9,236.8L37.9,236.8z"/>
			</g>
			<path class="st1" d="M47,151h-4v-2.8c0-1.1,0.9-2,2-2l0,0c1.1,0,2,0.9,2,2V151z"/>
			<path class="st1" d="M47,163.3h-4v-2.8c0-1.1,0.9-2,2-2l0,0c1.1,0,2,0.9,2,2V163.3z"/>
			<path class="st1" d="M47,175.6h-4v-2.8c0-1.1,0.9-2,2-2l0,0c1.1,0,2,0.9,2,2V175.6z"/>
			<path class="st1" d="M47,187.8h-4V185c0-1.1,0.9-2,2-2l0,0c1.1,0,2,0.9,2,2V187.8z"/>
			<path class="st1" d="M47,200.1h-4v-2.8c0-1.1,0.9-2,2-2l0,0c1.1,0,2,0.9,2,2V200.1z"/>
		</g>
		<polygon class="st1" points="39.7,138.3 27.3,138.3 27.3,128.8 		"/>
	</g>
	<g>
		<polyline class="st1" points="427.9,294.2 427.9,142.2 393.4,142.2 		"/>
		<g>
			<rect x="418.3" y="149.3" class="st1" width="3.9" height="4.8"/>
			<rect x="418.3" y="161.5" class="st1" width="3.9" height="4.8"/>
			<rect x="418.3" y="173.7" class="st1" width="3.9" height="4.8"/>
			<rect x="418.3" y="186" class="st1" width="3.9" height="4.8"/>
			<rect x="418.3" y="198.2" class="st1" width="3.9" height="4.8"/>
			<rect x="418.3" y="210.6" class="st1" width="3.9" height="4.8"/>
			<rect x="418.3" y="222.8" class="st1" width="3.9" height="4.8"/>
			<rect x="418.3" y="235" class="st1" width="3.9" height="4.8"/>
			<rect x="418.3" y="247" class="st1" width="3.9" height="4.8"/>
			<rect x="418.3" y="259.2" class="st1" width="3.9" height="4.8"/>
			<rect x="418.3" y="271.5" class="st1" width="3.9" height="4.8"/>
			<g>
				<rect x="409.3" y="149.3" class="st1" width="3.9" height="4.8"/>
				<rect x="409.3" y="161.5" class="st1" width="3.9" height="4.8"/>
				<rect x="409.3" y="173.7" class="st1" width="3.9" height="4.8"/>
				<rect x="409.3" y="186" class="st1" width="3.9" height="4.8"/>
				<rect x="409.3" y="198.2" class="st1" width="3.9" height="4.8"/>
				<rect x="409.3" y="210.6" class="st1" width="3.9" height="4.8"/>
				<rect x="409.3" y="222.8" class="st1" width="3.9" height="4.8"/>
				<rect x="409.3" y="235" class="st1" width="3.9" height="4.8"/>
			</g>
			<rect x="399.2" y="149.3" class="st1" width="3.9" height="4.8"/>
			<rect x="399.2" y="161.5" class="st1" width="3.9" height="4.8"/>
			<rect x="399.2" y="173.7" class="st1" width="3.9" height="4.8"/>
			<rect x="399.2" y="186" class="st1" width="3.9" height="4.8"/>
			<rect x="399.2" y="198.2" class="st1" width="3.9" height="4.8"/>
		</g>
		<rect x="404.5" y="138.3" class="st1" width="12.4" height="4"/>
	</g>
	<g>
		<g>
			<g>
				<g>
					<path class="st1" d="M35.1,107.2c0.4-0.9,1.1-1.5,2.1-1.8c0.9-0.3,1.8-0.1,2.6,0.3"/>
				</g>
				<g>
					<path class="st1" d="M34.9,107.2c-0.4-0.9-1.1-1.5-2.1-1.8c-0.9-0.3-1.8-0.1-2.6,0.3"/>
				</g>
			</g>
			<g>
				<g>
					<path class="st1" d="M62.3,61c0.4-0.9,1.1-1.5,2.1-1.8c0.9-0.3,1.8-0.1,2.6,0.3"/>
				</g>
				<g>
					<path class="st1" d="M62,61c-0.4-0.9-1.1-1.5-2.1-1.8c-0.9-0.3-1.8-0.1-2.6,0.3"/>
				</g>
			</g>
			<g>
				<g>
					<path class="st1" d="M118.5,37.8c0.4-0.9,1.1-1.5,2.1-1.8c0.9-0.3,1.8-0.1,2.6,0.3"/>
				</g>
				<g>
					<path class="st1" d="M118.2,37.8c-0.4-0.9-1.1-1.5-2.1-1.8c-0.9-0.3-1.8-0.1-2.6,0.3"/>
				</g>
			</g>
			<g>
				<g>
					<path class="st1" d="M314.4,44.1c0.4-0.9,1.1-1.5,2.1-1.8c0.9-0.3,1.8-0.1,2.6,0.3"/>
				</g>
				<g>
					<path class="st1" d="M314.1,44.1c-0.4-0.9-1.1-1.5-2.1-1.8c-0.9-0.3-1.8-0.1-2.6,0.3"/>
				</g>
			</g>
			<g>
				<g>
					<path class="st1" d="M326.5,95.8c0.4-0.9,1.1-1.5,2.1-1.8c0.9-0.3,1.8-0.1,2.6,0.3"/>
				</g>
				<g>
					<path class="st1" d="M326.2,95.8c-0.4-0.9-1.1-1.5-2.1-1.8c-0.9-0.3-1.8-0.1-2.6,0.3"/>
				</g>
			</g>
			<g>
				<g>
					<path class="st1" d="M216.2,32.3c0.4-0.9,1.1-1.5,2.1-1.8c0.9-0.3,1.8-0.1,2.6,0.3"/>
				</g>
				<g>
					<path class="st1" d="M215.9,32.3c-0.4-0.9-1.1-1.5-2.1-1.8c-0.9-0.3-1.8-0.1-2.6,0.3"/>
				</g>
			</g>
			<g>
				<g>
					<path class="st1" d="M193.3,74.4c0.4-0.9,1.1-1.5,2.1-1.8c0.9-0.3,1.8-0.1,2.6,0.3"/>
				</g>
				<g>
					<path class="st1" d="M193,74.4c-0.4-0.9-1.1-1.5-2.1-1.8c-0.9-0.3-1.8-0.1-2.6,0.3"/>
				</g>
			</g>
		</g>
		<g>
			<g>
				<path class="st1" d="M169,14.6c0.4-0.9,1.1-1.5,2.1-1.8c0.9-0.3,1.8-0.1,2.6,0.3"/>
			</g>
			<g>
				<path class="st1" d="M168.7,14.6c-0.4-0.9-1.1-1.5-2.1-1.8c-0.9-0.3-1.8-0.1-2.6,0.3"/>
			</g>
		</g>
		<g>
			<g>
				<path class="st1" d="M426.7,122.4c0.4-0.9,1.1-1.5,2.1-1.8c0.9-0.3,1.8-0.1,2.6,0.3"/>
			</g>
			<g>
				<path class="st1" d="M426.4,122.4c-0.4-0.9-1.1-1.5-2.1-1.8c-0.9-0.3-1.8-0.1-2.6,0.3"/>
			</g>
		</g>
		<g>
			<g>
				<path class="st1" d="M282.2,21.2c0.4-0.9,1.1-1.5,2.1-1.8c0.9-0.3,1.8-0.1,2.6,0.3"/>
			</g>
			<g>
				<path class="st1" d="M281.9,21.2c-0.4-0.9-1.1-1.5-2.1-1.8c-0.9-0.3-1.8-0.1-2.6,0.3"/>
			</g>
		</g>
		<g>
			<g>
				<path class="st1" d="M377,60.2c0.4-0.9,1.1-1.5,2.1-1.8c0.9-0.3,1.8-0.1,2.6,0.3"/>
			</g>
			<g>
				<path class="st1" d="M376.8,60.2c-0.4-0.9-1.1-1.5-2.1-1.8c-0.9-0.3-1.8-0.1-2.6,0.3"/>
			</g>
		</g>
	</g>
	<g>
		<g>
			<g>
				<path class="st1" d="M150.5,250.8c5.6-6.9,14.2-11.2,23.7-11.2c8.9,0,16.9,3.8,22.5,9.8"/>
			</g>
			<g>
				<path class="st1" d="M162.5,241.8c5.6-6.9,14.2-11.2,23.7-11.2c8.9,0,16.9,3.8,22.5,9.8"/>
			</g>
		</g>
		<g>
			<g>
				<path class="st1" d="M402.7,329.3c-5.6-6.9-14.2-11.2-23.7-11.2c-8.9,0-16.9,3.8-22.5,9.8"/>
			</g>
			<g>
				<path class="st1" d="M390.7,320.3c-5.6-6.9-14.2-11.2-23.7-11.2c-8.9,0-16.9,3.8-22.5,9.8"/>
			</g>
		</g>
		<g>
			<path class="st1" d="M112.8,317.5c7-8.5,17.6-14,29.5-14c11.1,0,21,4.7,28,12.2"/>
		</g>
		<g>
			<path class="st1" d="M75.2,302.2c6-9.3,16-15.9,27.8-17.2c11-1.2,21.4,2.4,29.2,9.1"/>
		</g>
	</g>
	<g>
		<g>
			<rect x="13.5" y="292.6" class="st1" width="15.4" height="3.2"/>
			<rect x="13.5" y="314.3" class="st1" width="15.4" height="3.2"/>
			<rect x="15.2" y="295.8" class="st1" width="12.1" height="18.5"/>
			<line class="st1" x1="12.7" y1="305" x2="29.8" y2="305"/>
		</g>
		<g>
			<rect x="197" y="246.7" class="st1" width="15.4" height="3.2"/>
			<rect x="197" y="268.5" class="st1" width="15.4" height="3.2"/>
			<rect x="198.7" y="249.9" class="st1" width="12.1" height="18.5"/>
			<line class="st1" x1="196.2" y1="259.2" x2="213.3" y2="259.2"/>
		</g>
		<g>
			<rect x="375.5" y="272.2" class="st1" width="15.4" height="3.2"/>
			<rect x="375.5" y="294" class="st1" width="15.4" height="3.2"/>
			<rect x="377.2" y="275.4" class="st1" width="12.1" height="18.5"/>
			<line class="st1" x1="374.7" y1="284.7" x2="391.8" y2="284.7"/>
		</g>
		<g>
			<rect x="414.9" y="294.8" class="st1" width="15.4" height="3.2"/>
			<rect x="414.9" y="316.5" class="st1" width="15.4" height="3.2"/>
			<rect x="416.5" y="298.1" class="st1" width="12.1" height="18.5"/>
			<line class="st1" x1="431.2" y1="307.3" x2="414" y2="307.3"/>
		</g>
	</g>
	<g>
		<g>
			<line class="st1" x1="169.4" y1="334.1" x2="153" y2="334.1"/>
			<line class="st1" x1="228" y1="252.1" x2="268" y2="252.1"/>
			<line class="st1" x1="186" y1="272.1" x2="217" y2="272.1"/>
			<line class="st1" x1="372" y1="297.1" x2="403" y2="297.1"/>
			<line class="st1" x1="134" y1="328.1" x2="147" y2="328.1"/>
			<g>
				<line class="st1" x1="242" y1="248.1" x2="253" y2="248.1"/>
				<line class="st1" x1="258" y1="248.1" x2="264" y2="248.1"/>
			</g>
			<g>
				<line class="st1" x1="303" y1="324.1" x2="314" y2="324.1"/>
				<line class="st1" x1="320" y1="324.1" x2="326" y2="324.1"/>
			</g>
			<line class="st1" x1="410" y1="324.1" x2="421" y2="324.1"/>
			<line class="st1" x1="30" y1="321.1" x2="41" y2="321.1"/>
			<g>
				<line class="st1" x1="249" y1="333.1" x2="238" y2="333.1"/>
				<line class="st1" x1="233" y1="333.1" x2="227" y2="333.1"/>
			</g>
			<g>
				<line class="st1" x1="337" y1="329.1" x2="348" y2="329.1"/>
				<line class="st1" x1="354" y1="329.1" x2="360" y2="329.1"/>
			</g>
			<line class="st1" x1="158" y1="328.1" x2="188" y2="328.1"/>
			<line class="st1" x1="210" y1="328.1" x2="230" y2="328.1"/>
			<line class="st1" x1="241" y1="328.1" x2="250.5" y2="328.1"/>
			<line class="st1" x1="259.3" y1="328.1" x2="276.9" y2="328.1"/>
			<line class="st1" x1="283" y1="328.1" x2="313" y2="328.1"/>
			<line class="st1" x1="288" y1="294.1" x2="319" y2="294.1"/>
			<line class="st1" x1="18" y1="317.1" x2="37" y2="317.1"/>
			<line class="st1" x1="426" y1="320.1" x2="407" y2="320.1"/>
			<line class="st1" x1="52" y1="331.5" x2="90.8" y2="331.5"/>
			<line class="st1" x1="101" y1="318.1" x2="157" y2="318.1"/>
			<line class="st1" x1="339" y1="260.1" x2="405" y2="260.1"/>
		</g>
		<line class="st1" x1="324.5" y1="337.1" x2="293.9" y2="337.1"/>
		<line class="st1" x1="214.8" y1="356.4" x2="255.1" y2="356.4"/>
		<line class="st1" x1="66.9" y1="336" x2="36.3" y2="336"/>
		<line class="st1" x1="330.4" y1="343.4" x2="299.8" y2="343.4"/>
		<g>
			<line class="st1" x1="206.3" y1="363.4" x2="217.3" y2="363.4"/>
			<line class="st1" x1="223" y1="363.4" x2="228.9" y2="363.4"/>
		</g>
		<g>
			<line class="st1" x1="325.6" y1="355.4" x2="314.6" y2="355.4"/>
			<line class="st1" x1="308.9" y1="355.4" x2="302.9" y2="355.4"/>
		</g>
		<line class="st1" x1="69.2" y1="347.2" x2="77.3" y2="347.2"/>
		<line class="st1" x1="356.8" y1="352.4" x2="367.8" y2="352.4"/>
		<g>
			<line class="st1" x1="281.3" y1="333.2" x2="292.3" y2="333.2"/>
			<line class="st1" x1="298" y1="333.2" x2="304" y2="333.2"/>
		</g>
		<g>
			<line class="st1" x1="197.3" y1="338.5" x2="208.3" y2="338.5"/>
			<line class="st1" x1="214" y1="338.5" x2="220" y2="338.5"/>
		</g>
		<g>
			<line class="st1" x1="103" y1="342.5" x2="95" y2="342.5"/>
			<line class="st1" x1="90.8" y1="342.5" x2="86.4" y2="342.5"/>
		</g>
		<line class="st1" x1="288.7" y1="343.4" x2="258.2" y2="343.4"/>
		<line class="st1" x1="236.2" y1="343.4" x2="216.5" y2="343.4"/>
		<line class="st1" x1="205.5" y1="343.4" x2="195" y2="343.4"/>
		<line class="st1" x1="180.8" y1="343.4" x2="174" y2="343.4"/>
		<line class="st1" x1="196.1" y1="370.7" x2="189.3" y2="370.7"/>
		<line class="st1" x1="400.1" y1="344.1" x2="393.3" y2="344.1"/>
		<line class="st1" x1="140.8" y1="354.7" x2="134" y2="354.7"/>
		<line class="st1" x1="341.4" y1="364.1" x2="334.7" y2="364.1"/>
		<line class="st1" x1="242.8" y1="378.1" x2="236" y2="378.1"/>
		<line class="st1" x1="129.5" y1="362.1" x2="110.5" y2="362.1"/>
		<line class="st1" x1="252.5" y1="370.4" x2="245.8" y2="370.4"/>
		<line class="st1" x1="101.8" y1="352.4" x2="95.1" y2="352.4"/>
		<line class="st1" x1="196.3" y1="358.1" x2="165.7" y2="358.1"/>
		<line class="st1" x1="344.9" y1="348.3" x2="363.4" y2="348.3"/>
		<line class="st1" x1="71.1" y1="341.9" x2="57.4" y2="341.9"/>
		<line class="st1" x1="395" y1="339.7" x2="340.4" y2="339.7"/>
		<line class="st1" x1="298.4" y1="363.3" x2="268.6" y2="363.3"/>
	</g>
	<g>
		<g>
			<rect x="352.5" y="114.2" class="st1" width="31.3" height="3.5"/>
			<rect x="359.3" y="117.7" class="st1" width="17.7" height="4.7"/>
		</g>
		<g>
			<polyline class="st1" points="350.5,209.1 350.5,122.4 385.8,122.4 385.8,199.4 			"/>
			<line class="st1" x1="377.1" y1="141.2" x2="385.8" y2="141.2"/>
			<line class="st1" x1="380.1" y1="181.7" x2="385.8" y2="181.7"/>
			<line class="st1" x1="371.7" y1="146.4" x2="376.1" y2="146.4"/>
			<line class="st1" x1="360.6" y1="181.7" x2="364.8" y2="181.7"/>
			<line class="st1" x1="380.1" y1="151" x2="385.8" y2="151"/>
			<line class="st1" x1="360.6" y1="186.3" x2="368.9" y2="186.3"/>
			<line class="st1" x1="377.3" y1="190.6" x2="385.8" y2="190.6"/>
			<line class="st1" x1="358.1" y1="155.3" x2="363.7" y2="155.3"/>
			<line class="st1" x1="378.9" y1="195.2" x2="382.8" y2="195.2"/>
			<line class="st1" x1="360.7" y1="159.9" x2="366.2" y2="159.9"/>
			<line class="st1" x1="371.7" y1="164.3" x2="382.8" y2="164.3"/>
			<line class="st1" x1="354.6" y1="164.3" x2="363.4" y2="164.3"/>
			<line class="st1" x1="351.6" y1="203.3" x2="354.6" y2="203.3"/>
			<line class="st1" x1="377.3" y1="168.9" x2="385.8" y2="168.9"/>
			<line class="st1" x1="372.4" y1="195.2" x2="375.1" y2="195.2"/>
			<line class="st1" x1="373" y1="133.4" x2="374.5" y2="133.4"/>
			<line class="st1" x1="359" y1="195.2" x2="368.7" y2="195.2"/>
			<line class="st1" x1="381.4" y1="137.8" x2="385.8" y2="137.8"/>
			<line class="st1" x1="371.7" y1="173.2" x2="381.4" y2="173.2"/>
			<line class="st1" x1="370.2" y1="137.8" x2="371.7" y2="137.8"/>
			<line class="st1" x1="360.3" y1="173.2" x2="366.1" y2="173.2"/>
			<line class="st1" x1="368.9" y1="177.8" x2="374.5" y2="177.8"/>
			<line class="st1" x1="351.5" y1="177.8" x2="359.9" y2="177.8"/>
			<line class="st1" x1="350.5" y1="142.4" x2="354.7" y2="142.4"/>
			<line class="st1" x1="374.8" y1="146.4" x2="379.2" y2="146.4"/>
			<line class="st1" x1="363.7" y1="181.7" x2="367.9" y2="181.7"/>
			<line class="st1" x1="358.2" y1="146.4" x2="365.2" y2="146.4"/>
			<line class="st1" x1="351.1" y1="151" x2="358.1" y2="151"/>
			<line class="st1" x1="369.2" y1="155.3" x2="374.8" y2="155.3"/>
			<line class="st1" x1="353.6" y1="155.3" x2="358.2" y2="155.3"/>
			<line class="st1" x1="374.4" y1="159.9" x2="385.8" y2="159.9"/>
			<line class="st1" x1="358.1" y1="164.3" x2="366.5" y2="164.3"/>
			<line class="st1" x1="354.7" y1="203.3" x2="357.7" y2="203.3"/>
			<line class="st1" x1="378.3" y1="133.4" x2="379.8" y2="133.4"/>
			<line class="st1" x1="351.1" y1="188.9" x2="352.6" y2="188.9"/>
			<line class="st1" x1="361.2" y1="199" x2="366.5" y2="199"/>
			<line class="st1" x1="370.6" y1="199.5" x2="374.6" y2="199.5"/>
			<path class="st1" d="M350.8,199"/>
			<line class="st1" x1="360.2" y1="168.9" x2="362.5" y2="168.9"/>
			<line class="st1" x1="374.8" y1="173.2" x2="384.5" y2="173.2"/>
			<line class="st1" x1="364.9" y1="137.8" x2="373.3" y2="137.8"/>
			<line class="st1" x1="361.2" y1="203.3" x2="364.9" y2="203.3"/>
			<line class="st1" x1="372" y1="177.8" x2="377.6" y2="177.8"/>
			<line class="st1" x1="360.3" y1="142.4" x2="372" y2="142.4"/>
			<line class="st1" x1="357.5" y1="177.8" x2="361.2" y2="177.8"/>
			<line class="st1" x1="351.3" y1="131.2" x2="354.4" y2="131.2"/>
		</g>
	</g>
	<g>
		<path class="st1" d="M92.5,146.1"/>
		<line class="st1" x1="57.2" y1="140.4" x2="57.2" y2="223"/>
		<polyline class="st1" points="57.2,140.4 57.2,121.6 92.5,121.6 92.5,146.1 		"/>
		<line class="st1" x1="92.5" y1="139.4" x2="83.8" y2="139.4"/>
		<line class="st1" x1="70.4" y1="177.5" x2="67.3" y2="177.5"/>
		<line class="st1" x1="67.3" y1="181.8" x2="75.7" y2="181.8"/>
		<line class="st1" x1="65" y1="152.7" x2="70.4" y2="152.7"/>
		<line class="st1" x1="67.4" y1="157" x2="73" y2="157"/>
		<line class="st1" x1="61.4" y1="161.1" x2="64.8" y2="161.1"/>
		<line class="st1" x1="58.3" y1="197.9" x2="61.4" y2="197.9"/>
		<line class="st1" x1="79.7" y1="132" x2="81.3" y2="132"/>
		<line class="st1" x1="75.4" y1="190.3" x2="65.8" y2="190.3"/>
		<line class="st1" x1="88.2" y1="136.1" x2="92.5" y2="136.1"/>
		<line class="st1" x1="72.9" y1="169.5" x2="67.1" y2="169.5"/>
		<line class="st1" x1="58.2" y1="173.9" x2="64.2" y2="173.9"/>
		<line class="st1" x1="61.5" y1="140.4" x2="57.2" y2="140.4"/>
		<line class="st1" x1="57.2" y1="140.4" x2="57.2" y2="140.4"/>
		<line class="st1" x1="61.3" y1="210.9" x2="57.9" y2="210.9"/>
		<line class="st1" x1="74.7" y1="177.5" x2="71.6" y2="177.5"/>
		<line class="st1" x1="71.6" y1="177.5" x2="70.4" y2="177.5"/>
		<line class="st1" x1="71.9" y1="144.2" x2="64.9" y2="144.2"/>
		<line class="st1" x1="57.8" y1="148.6" x2="64.9" y2="148.6"/>
		<line class="st1" x1="60.3" y1="152.7" x2="64.8" y2="152.7"/>
		<line class="st1" x1="65" y1="152.7" x2="64.8" y2="152.7"/>
		<line class="st1" x1="70.1" y1="161.1" x2="73.2" y2="161.1"/>
		<line class="st1" x1="70.1" y1="161.1" x2="64.8" y2="161.1"/>
		<line class="st1" x1="64.5" y1="197.9" x2="61.4" y2="197.9"/>
		<line class="st1" x1="58.6" y1="194.4" x2="59.5" y2="194.4"/>
		<line class="st1" x1="85" y1="132" x2="86.5" y2="132"/>
		<line class="st1" x1="59.3" y1="184.4" x2="57.8" y2="184.4"/>
		<line class="st1" x1="73.2" y1="193.8" x2="68" y2="193.8"/>
		<line class="st1" x1="69.3" y1="165.4" x2="67" y2="165.4"/>
		<line class="st1" x1="71.6" y1="136.1" x2="76.9" y2="136.1"/>
		<line class="st1" x1="78.5" y1="136.1" x2="80" y2="136.1"/>
		<line class="st1" x1="76.9" y1="136.1" x2="78.5" y2="136.1"/>
		<line class="st1" x1="71.6" y1="197.9" x2="68" y2="197.9"/>
		<line class="st1" x1="67.1" y1="140.4" x2="78.8" y2="140.4"/>
		<line class="st1" x1="66.7" y1="173.9" x2="68" y2="173.9"/>
		<line class="st1" x1="64.2" y1="173.9" x2="66.7" y2="173.9"/>
		<line class="st1" x1="58" y1="129.9" x2="61.1" y2="129.9"/>
	</g>
	<g>
		<g>
			<rect x="279" y="240.8" class="st1" width="41.2" height="18.1"/>
			<g>
				<line class="st1" x1="287.3" y1="240.8" x2="279.2" y2="257.1"/>
				<line class="st1" x1="297.4" y1="240.8" x2="288.2" y2="258.9"/>
				<line class="st1" x1="307" y1="240.8" x2="297.8" y2="258.9"/>
				<line class="st1" x1="316.6" y1="240.8" x2="307.5" y2="258.9"/>
			</g>
		</g>
		<g>
			<g>
				<path class="st1" d="M291,233.3c0.5,0.9,0.2,2.1-0.7,2.6c-0.9,0.5-2.1,0.2-2.7-0.7c-0.5-0.9-0.2-2.1,0.7-2.6
					C289.2,232,290.4,232.4,291,233.3z"/>
				<line class="st1" x1="289.1" y1="228.5" x2="289.1" y2="231.9"/>
				<line class="st1" x1="289.1" y1="236.3" x2="289.1" y2="239.7"/>
				<line class="st1" x1="289.1" y1="259.7" x2="289.1" y2="264.3"/>
			</g>
			<g>
				<path class="st1" d="M311.7,233.3c0.5,0.9,0.2,2.1-0.7,2.6c-0.9,0.5-2.1,0.2-2.7-0.7c-0.5-0.9-0.2-2.1,0.7-2.6
					C310,232,311.2,232.4,311.7,233.3z"/>
				<line class="st1" x1="309.8" y1="228.5" x2="309.8" y2="231.9"/>
				<line class="st1" x1="309.8" y1="236.3" x2="309.8" y2="239.7"/>
				<line class="st1" x1="309.8" y1="259.7" x2="309.8" y2="264.3"/>
			</g>
		</g>
	</g>
	<g>
		<g>
			<g>
				<rect x="136.1" y="266.6" class="st1" width="41.2" height="9.2"/>
				<g>
					<line class="st1" x1="144.4" y1="266.6" x2="136.7" y2="274.3"/>
					<line class="st1" x1="154.4" y1="266.6" x2="145.3" y2="275.8"/>
					<line class="st1" x1="164.1" y1="266.6" x2="154.9" y2="275.8"/>
					<line class="st1" x1="173.7" y1="266.6" x2="164.5" y2="275.8"/>
				</g>
			</g>
			<g>
				<g>
					<rect x="163.5" y="262.6" class="st1" width="5.3" height="4"/>
					<line class="st1" x1="166.1" y1="258.8" x2="166.1" y2="262.6"/>
				</g>
				<g>
					<line class="st1" x1="167.6" y1="275.8" x2="167.6" y2="303.4"/>
					<line class="st1" x1="164.6" y1="275.8" x2="164.6" y2="303.4"/>
				</g>
			</g>
			<g>
				<g>
					<rect x="142.9" y="262.6" class="st1" width="5.3" height="4"/>
					<line class="st1" x1="145.5" y1="258.8" x2="145.5" y2="262.6"/>
				</g>
				<g>
					<line class="st1" x1="147" y1="275.8" x2="147" y2="303.4"/>
					<line class="st1" x1="144" y1="275.8" x2="144" y2="303.4"/>
				</g>
			</g>
		</g>
		<line class="st1" x1="139" y1="284.4" x2="174.4" y2="284.4"/>
	</g>
	<line class="st1" x1="34.8" y1="127.8" x2="34.8" y2="134"/>
	<g>
		<g>
			<g>
				<g>
					<rect x="321.7" y="280.6" class="st1" width="42.6" height="9.5"/>
					<g>
						<line class="st1" x1="330.3" y1="280.6" x2="322.3" y2="288.6"/>
						<line class="st1" x1="340.7" y1="280.6" x2="331.2" y2="290.1"/>
						<line class="st1" x1="350.6" y1="280.6" x2="341.1" y2="290.1"/>
						<line class="st1" x1="360.6" y1="280.6" x2="351.1" y2="290.1"/>
					</g>
				</g>
				<g>
					<g>
						<rect x="350" y="276.5" class="st1" width="5.4" height="4.1"/>
						<line class="st1" x1="352.7" y1="272.6" x2="352.7" y2="276.5"/>
					</g>
					<g>
						<line class="st1" x1="354.3" y1="290.1" x2="354.3" y2="310.3"/>
						<line class="st1" x1="351.2" y1="290.1" x2="351.2" y2="312.3"/>
					</g>
				</g>
				<g>
					<g>
						<rect x="328.7" y="276.5" class="st1" width="5.4" height="4.1"/>
						<line class="st1" x1="331.4" y1="272.6" x2="331.4" y2="276.5"/>
					</g>
					<g>
						<line class="st1" x1="333" y1="290.1" x2="333" y2="318.8"/>
						<line class="st1" x1="329.9" y1="290.1" x2="329.9" y2="318.8"/>
					</g>
				</g>
			</g>
		</g>
		<rect x="323.7" y="265.2" class="st1" width="37" height="8.6"/>
	</g>
	<g>
		<g>
			<g>
				<path class="st2" d="M378,255.1c0.5,0.5,1.4,0.5,1.9,0s0.5-1.4,0-1.9s-1.4-0.5-1.9,0C377.5,253.7,377.5,254.5,378,255.1z"/>
				<path class="st1" d="M374.4,249.5c2.5-2.5,6.6-2.5,9.2,0c1.2,1.2,1.8,2.8,1.9,4.4c0.1,1.7-0.6,3.5-1.9,4.8
					c-2.5,2.5-6.6,2.5-9.2,0c-1.3-1.3-1.9-3.1-1.9-4.8C372.5,252.3,373.1,250.8,374.4,249.5z"/>
			</g>
			<g>
				<path class="st1" d="M360.1,250.9c-1.8-1.8-4.6-1.8-6.4,0c-0.8,0.8-1.3,1.9-1.3,3.1c0,1.2,0.4,2.4,1.3,3.3
					c1.8,1.8,4.6,1.8,6.4,0c0.9-0.9,1.4-2.1,1.3-3.3C361.4,252.9,360.9,251.8,360.1,250.9z"/>
				<path class="st2" d="M356,255.1c0.5,0.5,1.4,0.5,1.9,0s0.5-1.4,0-1.9s-1.4-0.5-1.9,0C355.4,253.7,355.4,254.5,356,255.1z"/>
			</g>
			<path class="st1" d="M384.9,257.9h2.6c0.7-1.3,1-2.8,1-4.3c0-0.4,0-0.7-0.1-1c-0.5-4.5-4.1-8.1-8.6-8.5l0,0c-0.1,0-0.1,0-0.2,0
				l0,0h-0.2h-0.1h-0.1h-0.4h-0.1h-0.1c-0.1,0-0.1,0-0.2,0l0,0h-0.1h-0.1h-0.1H378h-0.2h-0.1h-0.1h-0.1h-0.1c-0.1,0-0.1,0-0.2,0l0,0
				c-0.4,0.1-0.7,0.2-1.1,0.3c-1.3,0.4-2.5,1.1-3.6,2.1c-1.9,1.8-2.9,4.3-3,6.7h2.3"/>
			<path class="st1" d="M391.9,249.7v-10.5V236c0-3.2-2.6-5.7-5.7-5.7h-4.6"/>
			<path class="st1" d="M355.3,235.9c-4,0-7.2,3.2-7.3,7.2l-0.1,9.7h4.5"/>
			<g>
				<g>
					<line class="st1" x1="368.2" y1="219.3" x2="359.2" y2="223"/>
					<line class="st1" x1="371" y1="221.6" x2="367.4" y2="216.1"/>
				</g>
				<path class="st1" d="M367.4,230.4l0.9-2.2l0.6-1.4l0,0c0.1-0.2,0.2-0.4,0.3-0.6l0,0c0.1-0.1,0.1-0.2,0.2-0.2c0,0,0,0,0-0.1
					s0.1-0.1,0.2-0.2c0,0,0-0.1,0.1-0.1l0.1-0.1l0.1-0.1l0.1-0.1c0.1,0,0.1-0.1,0.2-0.1s0.1-0.1,0.2-0.1c0,0,0.1,0,0.1-0.1
					c0.1,0,0.2,0,0.3,0h5.5l2.5-5.8c0.1-0.4,0.3-0.8,0.8-0.8h0.8"/>
				<line class="st1" x1="362.7" y1="211.8" x2="381.6" y2="211.8"/>
				<path class="st1" d="M381.6,235.9c0,2.6-1.4,4.4-3.9,4.4h-17.5c-2.6,0-4.9-2-4.6-4.5c0.8-6.5,4.8-18.2,6.7-23.5
					c0.9-2.4,2.1-4.5,4.6-4.5h10.8c2.6,0,3.9,1.9,3.9,4.4V235.9z"/>
				<g>
					<path class="st1" d="M366.3,240.3v-6.9c0-2.6,2.6-4.5,5.2-4.5h10.1"/>
				</g>
			</g>
			<line class="st1" x1="347.9" y1="249.6" x2="370.2" y2="249.6"/>
			<line class="st1" x1="389.2" y1="250.9" x2="395.5" y2="250.9"/>
		</g>
		<polyline class="st1" points="350.5,237.2 345.9,220.2 335.9,220.2 348,243.1 		"/>
	</g>
	<g>
		<polyline class="st1" points="314.5,127.8 314.5,150.5 310.1,150.5 310.1,127.8 		"/>
		<g>
			<ellipse transform="matrix(0.8669 -0.4984 0.4984 0.8669 -19.3353 171.5771)" class="st1" cx="311.7" cy="122" rx="2" ry="2"/>
			<path class="st1" d="M328,119.3l-13.4,7.7c-2.7,1.6-6.3,0.6-7.9-2.1l0,0c-1.6-2.7-0.6-6.3,2.1-7.9l13.4-7.7L328,119.3z"/>
		</g>
		<ellipse transform="matrix(0.8669 -0.4984 0.4984 0.8669 -44.5325 178.6228)" class="st1" cx="312.3" cy="172.7" rx="2" ry="2"/>
		<g>
			<path class="st1" d="M312.3,159.6L312.3,159.6c-3.3,0-5.9-2.6-5.9-5.9v-3.2h11.8v3.2C318.2,157,315.6,159.6,312.3,159.6z"/>
			<path class="st1" d="M312.3,159.6L312.3,159.6c-3.3,0-5.9-2.6-5.9-5.9v-3.2h11.8v3.2C318.2,157,315.6,159.6,312.3,159.6z"/>
			<path class="st1" d="M314.2,151.4v1.2c0,1-0.9,1.9-1.9,1.9l0,0c-1,0-1.9-0.9-1.9-1.9v-1.2"/>
		</g>
		<line class="st1" x1="322.1" y1="122.7" x2="338.9" y2="219.1"/>
		<line class="st1" x1="324.8" y1="122" x2="341.9" y2="220.2"/>
		<line class="st1" x1="312.3" y1="159.6" x2="312.3" y2="169.6"/>
		<g>
			<line class="st1" x1="306.4" y1="187.1" x2="311.7" y2="174.7"/>
			<line class="st1" x1="318.9" y1="187.1" x2="313.6" y2="174.7"/>
		</g>
		<line class="st1" x1="315.2" y1="114.2" x2="320.2" y2="123.8"/>
	</g>
	<g>
		<path class="st1" d="M278.1,287.5h-42.3c-0.7,0-1.3-0.6-1.3-1.3l0,0c0-0.7,0.6-1.3,1.3-1.3h41.9"/>
		<g>
			<g>
				<path class="st1" d="M228,280.5c1.4-2.9,4.3-4.8,7.6-4.8c3.4,0,6.3,2,7.6,4.8"/>
			</g>
			<g>
				<path class="st1" d="M235.8,275.4c2.1-2.6,5.3-4.2,8.9-4.2c3.3,0,6.3,1.4,8.4,3.7"/>
			</g>
			<g>
				<path class="st1" d="M256.3,274.9c2.9-1.7,6.4-2.1,9.8-0.9c3.1,1.1,5.4,3.5,6.6,6.3"/>
			</g>
			<g>
				<path class="st1" d="M246.3,280.5c1.5-3.2,4.7-5.4,8.5-5.4c3.7,0,7,2.2,8.5,5.4"/>
			</g>
		</g>
		<path class="st1" d="M188.7,314.9v4h-2c-1.1,0-2-0.9-2-2l0,0c0-1.1,0.9-2,2-2H188.7z"/>
		<path class="st1" d="M257,313.2h-39.7c0.7,0.7,1.3,1.5,1.8,2.4"/>
		<path class="st1" d="M188.7,304v9.1h12.9l0,0c1.6-1.5,3.5-2.5,5.4-2.9l0,0c0.1,0,0.1,0,0.2,0h0.1h0.1h0.2h0.1h0.1h0.1h0.1h0.1h0.1
			h0.2h0.1c0.1,0,0.1,0,0.2,0h0.1h0.7c0.1,0,0.1,0,0.2,0h0.2h0.1c0.1,0,0.2,0,0.2,0l0,0c2.3,0.2,4.4,1.1,6,2.5l-0.1-20.7v-9.3
			c-0.1-0.9-0.7-1.4-1.8-1.4h-9c-9.3,0-16.8,7.5-16.8,16.8L188.7,304z"/>
		<path class="st1" d="M188.7,313v2.3v3.8v0.6v0.6l0,0c0,0.3,0.2,0.5,0.5,0.5l0,0h9c0.1-2.8,1.2-5.6,3.4-7.8H188.7z"/>
		<g>
			<g>
				<path class="st2" d="M210.2,321.9c-0.5,0.5-1.3,0.5-1.7,0c-0.5-0.5-0.5-1.3,0-1.7c0.5-0.5,1.3-0.5,1.7,0
					C210.7,320.6,210.7,321.4,210.2,321.9z"/>
				<path class="st1" d="M214.4,316c-2.8-2.8-7.3-2.8-10.1,0c-1.3,1.3-2,3.1-2.1,4.8c-0.1,1.9,0.6,3.8,2.1,5.3
					c2.8,2.8,7.3,2.8,10.1,0c1.5-1.4,2.1-3.4,2.1-5.3C216.4,319.1,215.7,317.3,214.4,316z"/>
			</g>
			<line class="st1" x1="198.2" y1="320.8" x2="201.6" y2="320.8"/>
			<line class="st1" x1="216.5" y1="320.8" x2="220.5" y2="320.8"/>
		</g>
		<g>
			<g>
				<g>
					<path class="st2" d="M230.5,321.9c-0.5,0.5-1.3,0.5-1.7,0c-0.5-0.5-0.5-1.3,0-1.7c0.5-0.5,1.3-0.5,1.7,0
						C231,320.6,231,321.4,230.5,321.9z"/>
					<path class="st1" d="M234.6,316c-2.8-2.8-7.3-2.8-10.1,0c-1.3,1.3-2,3.1-2.1,4.8c-0.1,1.9,0.6,3.8,2.1,5.3
						c2.8,2.8,7.3,2.8,10.1,0c1.5-1.4,2.1-3.4,2.1-5.3C236.7,319.1,236,317.3,234.6,316z"/>
				</g>
				<line class="st1" x1="218.5" y1="320.8" x2="221.9" y2="320.8"/>
				<line class="st1" x1="236.7" y1="320.8" x2="240.7" y2="320.8"/>
			</g>
			<g>
				<g>
					<path class="st2" d="M250.7,321.9c-0.5,0.5-1.3,0.5-1.7,0c-0.5-0.5-0.5-1.3,0-1.7c0.5-0.5,1.3-0.5,1.7,0
						C251.2,320.6,251.2,321.4,250.7,321.9z"/>
					<path class="st1" d="M254.9,316c-2.8-2.8-7.3-2.8-10.1,0c-1.3,1.3-2,3.1-2.1,4.8c-0.1,1.9,0.6,3.8,2.1,5.3
						c2.8,2.8,7.3,2.8,10.1,0c1.5-1.4,2.1-3.4,2.1-5.3C256.9,319.1,256.2,317.3,254.9,316z"/>
				</g>
				<line class="st1" x1="238.7" y1="320.8" x2="242.1" y2="320.8"/>
				<line class="st1" x1="257" y1="320.8" x2="261" y2="320.8"/>
			</g>
			<g>
				<g>
					<path class="st2" d="M271,321.9c-0.5,0.5-1.3,0.5-1.7,0c-0.5-0.5-0.5-1.3,0-1.7c0.5-0.5,1.3-0.5,1.7,0
						C271.5,320.6,271.5,321.4,271,321.9z"/>
					<path class="st1" d="M275.2,316c-2.8-2.8-7.3-2.8-10.1,0c-1.3,1.3-2,3.1-2.1,4.8c-0.1,1.9,0.6,3.8,2.1,5.3
						c2.8,2.8,7.3,2.8,10.1,0c1.5-1.4,2.1-3.4,2.1-5.3C277.2,319.1,276.5,317.3,275.2,316z"/>
				</g>
				<line class="st1" x1="259" y1="320.8" x2="262.4" y2="320.8"/>
				<line class="st1" x1="277.3" y1="320.8" x2="281.3" y2="320.8"/>
			</g>
		</g>
		<rect x="264.7" y="303.7" class="st1" width="12.2" height="4.8"/>
		<path class="st1" d="M267.1,310.1"/>
		<path class="st1" d="M272.6,313"/>
		<path class="st1" d="M257,313.2h-39.7c-0.3-0.3-0.5-0.5-0.8-0.7l-0.1-20.7c0.6,0,1.4,0.2,2.1,0.6c0.7,0.4,1.2,1,1.2,1.6v14.4h4v-4
			h8v4H281c0.2,0,0.4,0.2,0.4,0.4v4L257,313.2z"/>
		<rect x="259.3" y="299.7" class="st1" width="22" height="4"/>
		<rect x="259.3" y="295.7" class="st1" width="22" height="4"/>
		<line class="st1" x1="281.3" y1="312.8" x2="279.3" y2="320.8"/>
		<path class="st1" d="M210.7,301.7h-16.3v-4.8c0-6.1,4.9-11,11-11h5.3V301.7z"/>
		<rect x="188.7" y="306" class="st1" width="8.8" height="3.5"/>
		<polygon class="st1" points="278.4,295.7 234,295.7 224.4,280.5 278.4,280.5 		"/>
	</g>
	<g>
		<g>
			<g>
				<path class="st1" d="M100.7,336.3c1.1-2.4,3.5-4,6.3-4s5.2,1.6,6.3,4"/>
			</g>
			<g>
				<path class="st1" d="M107.1,332.1c1.7-2.1,4.4-3.5,7.4-3.5c2.8,0,5.2,1.2,7,3.1"/>
			</g>
			<g>
				<path class="st1" d="M115.8,336.3c1.3-2.6,3.9-4.4,7-4.4s5.8,1.8,7,4.4"/>
			</g>
		</g>
		<polygon class="st1" points="98.4,336.3 135.9,336.3 125.2,351.7 109.6,351.7 		"/>
		<polyline class="st1" points="120.4,351.8 126.6,356.8 141,335.5 		"/>
		<path class="st1" d="M147.9,335.5h-6c-0.7,0-1.2-0.6-1.2-1.2l0,0c0-0.7,0.6-1.2,1.2-1.2h6c0.7,0,1.2,0.6,1.2,1.2l0,0
			C149.2,334.9,148.6,335.5,147.9,335.5z"/>
		<g>
			<g>
				<path class="st1" d="M117.6,355.7c-1.5-1.5-3.8-1.5-5.3,0c-0.7,0.7-1.1,1.6-1.1,2.5c0,1,0.3,2,1.1,2.8c1.5,1.5,3.8,1.5,5.3,0
					c0.8-0.8,1.1-1.8,1.1-2.8C118.7,357.3,118.3,356.4,117.6,355.7z"/>
				
					<ellipse transform="matrix(0.7071 -0.7071 0.7071 0.7071 -219.7205 186.2869)" class="st2" cx="115" cy="358.4" rx="1.1" ry="1.1"/>
			</g>
			<line class="st1" x1="115" y1="351.7" x2="115" y2="354.6"/>
		</g>
	</g>
	<g>
		<g>
			<rect x="101" y="110.4" class="st1" width="13.9" height="168"/>
			<g>
				<line class="st1" x1="82.4" y1="97" x2="102.4" y2="81.6"/>
				<path class="st1" d="M108,81"/>
				<line class="st1" x1="87.2" y1="97" x2="102.1" y2="85.6"/>
			</g>
			<g>
				<line class="st1" x1="132.2" y1="97" x2="112.2" y2="81.6"/>
				<line class="st1" x1="127.4" y1="97" x2="112.7" y2="85.7"/>
			</g>
			<g>
				<circle class="st1" cx="107.6" cy="79.8" r="4.7"/>
				<circle class="st1" cx="107.6" cy="79.8" r="1.7"/>
			</g>
			<path class="st1" d="M130.8,117.5L130.8,117.5c-1.9,0-3.5-1.6-3.5-3.5v-3.1h7.1v3.1C134.3,115.9,132.7,117.5,130.8,117.5z"/>
			<path class="st1" d="M145.1,110.8h2.9v1.5c0,0.8-0.7,1.5-1.5,1.5l0,0c-0.8,0-1.5-0.7-1.5-1.5v-1.5H145.1z"/>
			<g>
				<polyline class="st1" points="93.9,286.7 93.9,278.5 121.7,278.5 121.7,286.7 				"/>
				<line class="st1" x1="93.9" y1="278.6" x2="100.8" y2="266.7"/>
				<line class="st1" x1="121.7" y1="278.6" x2="115" y2="266.7"/>
			</g>
			<g>
				<polyline class="st1" points="149,163.7 149,131.9 157.5,131.9 157.5,163.7 				"/>
				<path class="st1" d="M159.4,131.9h-15.9v-3.6H163l0,0C163,130.3,161.4,131.9,159.4,131.9z"/>
				<g>
					
						<ellipse transform="matrix(1 -4.847061e-03 4.847061e-03 1 -0.859 0.7451)" class="st1" cx="153.3" cy="177.6" rx="1.7" ry="1.7"/>
					<path class="st1" d="M158.2,164.2l0.1,13.4c0,2.7-2.2,5-5,5l0,0c-2.7,0-5-2.2-5-5l-0.1-13.4H158.2z"/>
				</g>
			</g>
			<line class="st1" x1="115.1" y1="135.8" x2="132.1" y2="135.8"/>
			<line class="st1" x1="115.1" y1="138.7" x2="132.1" y2="138.7"/>
			<line class="st1" x1="132.1" y1="133.5" x2="132.1" y2="149.6"/>
			<g>
				
					<ellipse transform="matrix(0.7071 -0.7071 0.7071 0.7071 -72.7119 139.6312)" class="st2" cx="132.2" cy="157.6" rx="1.1" ry="1.1"/>
				<polygon class="st1" points="135.5,161.2 129.4,161.2 127,154 137.3,154 				"/>
				<path class="st1" d="M138.9,154h-13.4c-0.5,0-0.9-0.4-0.9-0.9v-1.8c0-0.5,0.4-0.9,0.9-0.9h13.4c0.5,0,0.9,0.4,0.9,0.9v1.8
					C139.8,153.5,139.4,154,138.9,154z"/>
			</g>
			<g>
				<g>
					
						<ellipse transform="matrix(0.7071 -0.7071 0.7071 0.7071 -129.1913 125.7619)" class="st2" cx="87.2" cy="218.8" rx="1.1" ry="1.1"/>
					<polygon class="st1" points="90.5,222.4 84.5,222.4 82.1,215.2 92.4,215.2 					"/>
					<path class="st1" d="M94,215.2H80.5c-0.5,0-0.9-0.4-0.9-0.9v-1.8c0-0.5,0.4-0.9,0.9-0.9H94c0.5,0,0.9,0.4,0.9,0.9v1.8
						C94.9,214.7,94.5,215.2,94,215.2z"/>
				</g>
				<line class="st1" x1="87.2" y1="202.2" x2="87.2" y2="210.7"/>
			</g>
			<polyline class="st1" points="114.7,110.4 101.3,120.3 114.7,130.2 101.3,140.1 114.7,150 101.3,159.9 114.7,169.7 101.3,179.6 
				114.7,189.5 101.3,199.4 114.7,209.3 101.3,219.2 114.7,229.1 101.3,238.9 114.7,248.8 101.3,258.7 114.7,268.6 101.3,278.5 			
				"/>
			<polygon class="st1" points="201,96.9 209.3,110.8 72.3,110.8 72.3,96.9 			"/>
			<polyline class="st1" points="72.3,97.1 82.2,110.6 92.1,97.1 102,110.6 111.9,97.1 121.7,110.6 131.6,97.1 141.5,110.6 
				151.4,97.1 161.3,110.6 171.2,97.1 181.1,110.6 190.9,97.1 200.8,110.6 201,97.1 			"/>
			<line class="st1" x1="111.2" y1="76.8" x2="196.6" y2="96.9"/>
			<g>
				<path class="st3" d="M111.7,121.7H98.4V93.1h19.4v22.5C117.8,119,115.1,121.7,111.7,121.7z"/>
				<rect x="104.7" y="93.1" class="st3" width="6.8" height="10.1"/>
			</g>
			<rect x="138.3" y="110.8" class="st1" width="31.3" height="17.5"/>
		</g>
		<line class="st1" x1="85" y1="202.2" x2="101" y2="202.2"/>
		<line class="st1" x1="85" y1="199" x2="101" y2="199"/>
	</g>
	<g>
		<line class="st1" x1="139.6" y1="209.1" x2="150.9" y2="182.7"/>
		<line class="st1" x1="166.3" y1="209.1" x2="155" y2="182.7"/>
	</g>
	<rect x="122.8" y="209.3" class="st1" width="60.3" height="5.8"/>
	<rect x="295.6" y="187.7" class="st1" width="32" height="5.8"/>
</g>
</svg>
