<?xml version="1.0" encoding="utf-8"?>
<!-- Generator: Adobe Illustrator 21.0.0, SVG Export Plug-In . SVG Version: 6.00 Build 0)  -->
<svg version="1.1" id="Layer_1" xmlns="http://www.w3.org/2000/svg" xmlns:xlink="http://www.w3.org/1999/xlink" x="0px" y="0px"
	 viewBox="0 0 3000 2000" style="enable-background:new 0 0 3000 2000;" xml:space="preserve">
<style type="text/css">
	.st0{clip-path:url(#SVGID_2_);fill:url(#SVGID_3_);}
	.st1{clip-path:url(#SVGID_5_);fill:url(#SVGID_6_);}
	.st2{clip-path:url(#SVGID_8_);fill:url(#SVGID_9_);}
	.st3{clip-path:url(#SVGID_11_);fill:url(#SVGID_12_);}
	.st4{clip-path:url(#SVGID_14_);fill:url(#SVGID_15_);}
	.st5{clip-path:url(#SVGID_17_);fill:url(#SVGID_18_);}
	.st6{clip-path:url(#SVGID_20_);fill:url(#SVGID_21_);}
	.st7{clip-path:url(#SVGID_23_);fill:url(#SVGID_24_);}
	.st8{clip-path:url(#SVGID_26_);fill:url(#SVGID_27_);}
	.st9{clip-path:url(#SVGID_29_);fill:url(#SVGID_30_);}
	.st10{clip-path:url(#SVGID_32_);fill:url(#SVGID_33_);}
	.st11{fill:#CF8B2D;}
</style>
<g>
	<defs>
		<path id="SVGID_1_" d="M980.5,714.5c-175.2,146.4-206.3,333.7-178.3,462.1c32.2-35.9,96.5-65.7,187-74.3
			c67.8-6.4,139.9,13.7,211.3,36.9c-9,65.3-11.2,121.7-10.3,158.6c0,0,94.8-21.2,199.7-13.8c0,0-2.4-37-3.8-92.7
			c13,1.9,25.8,3.1,38.4,3.5c64.8,1.9,125.5-13.2,172.8-81.5c-63.3,21.8-135.2-14.8-211.6-54.2c1.1-53.6,4.1-110.6,10.3-163.8
			c20.2-173.7,56.5-247,56.5-247c-35.8,39-82.7,64.4-82.7,64.4c-38.1,56.4-87.5,125.6-120.2,218.9c-6.8,19.3-12.8,38.7-18.2,58
			c-60.9-21.4-122.5-34.7-182.1-34.4c-70.9,0.3-118.2,13.3-149.3,28.4c61.5-171.4,395.6-140.3,517.3-422.5
			c60.1-139.5-13.5-246.2-13.5-246.2C1384.1,466.7,1131.1,588.7,980.5,714.5"/>
	</defs>
	<clipPath id="SVGID_2_">
		<use xlink:href="#SVGID_1_"  style="overflow:visible;"/>
	</clipPath>
	
		<linearGradient id="SVGID_3_" gradientUnits="userSpaceOnUse" x1="500.0652" y1="2000.0464" x2="501.0652" y2="2000.0464" gradientTransform="matrix(785.5418 0 0 -785.5418 -392010.5313 1571926.25)">
		<stop  offset="0" style="stop-color:#CF8B2D"/>
		<stop  offset="0.1" style="stop-color:#CF8B2D"/>
		<stop  offset="0.1802" style="stop-color:#D69B3A"/>
		<stop  offset="0.3494" style="stop-color:#E5BD5F"/>
		<stop  offset="0.4818" style="stop-color:#EFD377"/>
		<stop  offset="0.56" style="stop-color:#F3DB80"/>
		<stop  offset="0.93" style="stop-color:#BB8632"/>
		<stop  offset="1" style="stop-color:#BB8632"/>
	</linearGradient>
	<rect x="774.2" y="314.7" class="st0" width="823" height="983.1"/>
</g>
<g>
	<defs>
		<path id="SVGID_4_" d="M1004.5,1023.6c-155.4,15.9-202.3,106-202.3,153c32.2-35.9,96.5-65.7,187-74.3
			c67.8-6.4,139.9,13.7,211.3,36.9c-9,65.3-11.2,121.7-10.3,158.6c0,0,39.5-8.8,95.6-13.1c-1.5-33.9-3-108.3,7.1-191.4
			c-77.8-33.4-167.7-71.2-257.6-71.2C1025,1022.1,1014.7,1022.5,1004.5,1023.6 M1409.2,686.7c-38.8,89.9-88.6,247.8-107.1,346.1
			c-3.8,20.4-6.9,40.6-9.2,60.4c54,23.2,102.2,44.2,140.5,49.1c81,10.4,124.7-1.6,163.8-29.1c-63.3,21.8-135.2-14.8-211.6-54.2
			c1.1-53.6,4.1-110.6,10.3-163.8c20.2-173.7,56.5-247,56.5-247C1438.6,663.3,1423,676.4,1409.2,686.7 M1361,538
			c-55.7,71.6-195.5,147.4-297.4,220.9c-102.5,73.9-149.6,170.7-163.7,224.5c61.5-171.4,395.6-140.3,517.3-422.5
			c60.1-139.5-13.5-246.2-13.5-246.2C1422.5,374.2,1406.2,480,1361,538"/>
	</defs>
	<clipPath id="SVGID_5_">
		<use xlink:href="#SVGID_4_"  style="overflow:visible;"/>
	</clipPath>
	
		<linearGradient id="SVGID_6_" gradientUnits="userSpaceOnUse" x1="500.0325" y1="1999.9543" x2="501.0325" y2="1999.9543" gradientTransform="matrix(0 -1121.2502 -1121.2502 0 2243649 562097.5625)">
		<stop  offset="0" style="stop-color:#956338"/>
		<stop  offset="0.1" style="stop-color:#956338"/>
		<stop  offset="0.1771" style="stop-color:#A4723A"/>
		<stop  offset="0.3481" style="stop-color:#C69244"/>
		<stop  offset="0.4815" style="stop-color:#DCA94C"/>
		<stop  offset="0.56" style="stop-color:#E5B250"/>
		<stop  offset="0.93" style="stop-color:#956338"/>
		<stop  offset="1" style="stop-color:#956338"/>
	</linearGradient>
	<rect x="802.1" y="314.7" class="st1" width="795" height="983.1"/>
</g>
<g>
	<defs>
		<path id="SVGID_7_" d="M1378.5,757.4c-9.4,23.9-18.2,48.1-26.5,72.4c-8.4,24.3-16,48.9-23.4,73.5c-7.2,24.7-14,49.5-20.1,74.5
			c-5.9,25-11.4,50.3-15.3,75.8c-3.8,25.5-6.8,51.2-8.4,76.9c-3.5,51.4-3.4,103,1,154.2c0.2-51.3,2.4-102.6,7.5-153.4
			c5-50.9,13.4-101.2,25.9-150.8c12-49.7,26.2-98.9,41-147.9c7.5-24.5,15.3-48.9,23.4-73.2c8-24.3,16.5-48.5,25.5-72.6
			C1397.9,709.8,1388,733.6,1378.5,757.4"/>
	</defs>
	<clipPath id="SVGID_8_">
		<use xlink:href="#SVGID_7_"  style="overflow:visible;"/>
	</clipPath>
	
		<linearGradient id="SVGID_9_" gradientUnits="userSpaceOnUse" x1="500.0607" y1="1999.9147" x2="501.0607" y2="1999.9147" gradientTransform="matrix(0 -600.3751 -600.3751 0 1202044.125 301508.6875)">
		<stop  offset="0" style="stop-color:#E5B250"/>
		<stop  offset="0.1" style="stop-color:#E5B250"/>
		<stop  offset="0.3026" style="stop-color:#F4D477"/>
		<stop  offset="0.4638" style="stop-color:#FEEB8F"/>
		<stop  offset="0.56" style="stop-color:#FFF799"/>
		<stop  offset="0.93" style="stop-color:#E5B250"/>
		<stop  offset="1" style="stop-color:#E5B250"/>
	</linearGradient>
	<rect x="1281.2" y="686.7" class="st2" width="128" height="597.9"/>
</g>
<g>
	<defs>
		<path id="SVGID_10_" d="M1038.1,1017.1c-10,0-19.9,0.5-29.9,1.4c-4.7,0.3-9.4,1.1-14.1,1.8l-14,2c-4.7,0.5-9.3,1.8-13.9,2.8
			l-13.8,3.1c-2.3,0.4-4.6,1.2-6.8,1.9l-6.8,2.1c-4.5,1.4-9.1,2.6-13.5,4.3l-13.2,5.3c-2.2,0.9-4.4,1.7-6.6,2.7l-6.3,3.2
			c-4.2,2.2-8.5,4.2-12.6,6.5l-12.1,7.5c-4.1,2.3-7.8,5.4-11.6,8.2c-3.8,2.9-7.6,5.6-11,9c-14.2,12.5-26.4,27.3-35.4,44
			c-8.9,16.6-14.5,35.2-14.4,53.9c0.5-4.7,0.6-9.3,1.8-13.8c0.5-2.3,0.8-4.6,1.5-6.8l2.1-6.6c0.6-2.2,1.5-4.4,2.4-6.5l2.7-6.4
			c2-4.2,4.3-8.2,6.5-12.3c9.5-15.9,22-29.8,36.3-41.3l2.6-2.2c0.8-0.8,1.7-1.5,2.7-2.1l5.6-4c3.8-2.6,7.4-5.5,11.5-7.6l11.9-6.9
			c4.1-2,8.3-3.9,12.5-5.9l6.2-2.9l6.5-2.4l12.9-4.8c4.3-1.5,8.8-2.6,13.3-3.9l6.6-1.9c2.2-0.6,4.4-1.3,6.7-1.7l13.6-2.7
			c4.5-0.8,9-2,13.6-2.4l13.7-1.8c4.6-0.5,9.1-1.4,13.7-1.5c18.3-1.5,36.7-1.3,55,0.5c36.7,3.4,72.8,12.1,108,23.5
			c35.3,11.2,69.8,25.3,104.1,39.7l51.7,21.6c17.3,7.1,34.8,14,52.6,19.9c9,2.9,18,5.7,27.2,7.9c9.1,2.3,18.6,4,28,5
			c18.7,2,37.5,3.1,56.3,2.4l7.1-0.3l7-0.6c4.7-0.3,9.4-1.1,14-1.8c9.3-1.7,18.5-3.5,27.5-6.6c8.9-3,17.7-6.5,25.9-11
			c8.2-4.5,16.1-9.6,23.6-15.2c-15.6,10.2-32.5,18.4-50.4,23.3c-8.9,2.6-18.1,4-27.2,5.2c-4.6,0.4-9.2,1-13.8,1.1l-6.9,0.3l-6.9,0
			c-18.5,0.1-37-1.6-55.3-4.2c-18.2-2.4-35.8-7.8-53.3-13.9c-34.8-12.7-68.7-28.2-103-43c-34.3-14.8-69-29.1-104.8-40.6
			c-35.8-11.4-72.7-20.2-110.5-23.4c-8.8-0.7-17.6-1.1-26.5-1.1H1038.1z"/>
	</defs>
	<clipPath id="SVGID_11_">
		<use xlink:href="#SVGID_10_"  style="overflow:visible;"/>
	</clipPath>
	
		<linearGradient id="SVGID_12_" gradientUnits="userSpaceOnUse" x1="500.0638" y1="2000.0454" x2="501.0638" y2="2000.0454" gradientTransform="matrix(803.6667 0 0 -803.6667 -401087.9063 1608466.75)">
		<stop  offset="0" style="stop-color:#E5B250"/>
		<stop  offset="0.1" style="stop-color:#E5B250"/>
		<stop  offset="0.3026" style="stop-color:#F4D477"/>
		<stop  offset="0.4638" style="stop-color:#FEEB8F"/>
		<stop  offset="0.56" style="stop-color:#FFF799"/>
		<stop  offset="0.93" style="stop-color:#E5B250"/>
		<stop  offset="1" style="stop-color:#E5B250"/>
	</linearGradient>
	<rect x="802" y="1017.1" class="st3" width="795.1" height="159.5"/>
</g>
<g>
	<defs>
		<path id="SVGID_13_" d="M1406.8,328.2l1,6.9c0.4,2.3,0.7,4.6,0.8,6.9c1,9.2,1.3,18.4,1.2,27.6c-0.3,18.4-2.2,36.8-5.8,54.8
			c-3.5,18-8.4,35.8-14.9,52.9c-6.5,17.1-14.4,33.6-24.7,48.5c-10.1,14.9-23.1,28-36.4,40.4l-10.2,9.2l-10.6,8.8l-5.3,4.4l-5.5,4.2
			l-10.9,8.5c-29.4,22.2-60,42.8-90.9,63.2c-30.8,20.5-62,40.5-92.6,61.4c-15.3,10.5-30.5,21.1-45.4,32.3
			c-7.4,5.7-14.9,11.3-21.9,17.5c-3.5,3.1-7.1,6.1-10.6,9.2l-10.2,9.6l-5.1,4.8l-4.9,5l-9.7,10.1l-9.3,10.5l-4.6,5.3l-4.4,5.5
			l-8.7,11l-8.2,11.3c-2.8,3.7-5.3,7.7-7.9,11.5c-2.6,3.9-5.2,7.7-7.5,11.8c-9.8,15.8-18.4,32.4-25.9,49.4
			c-7.5,17-13.7,34.6-18,52.6c11.1-35.4,27.8-68.6,48.4-99.1c10.3-15.2,21.2-30.1,33.3-43.9l4.5-5.3l4.7-5.1l9.3-10.1l9.8-9.7
			l4.9-4.8l5.1-4.6l10.2-9.2c3.5-3,7.1-5.8,10.6-8.8c7-6,14.4-11.3,21.7-16.8c3.6-2.8,7.4-5.4,11.2-8l11.4-7.9l23-15.5
			c30.8-20.5,61.9-40.5,92.9-60.9c30.9-20.5,61.7-41.3,91.2-64.1l10.9-8.7l5.5-4.4l5.3-4.6l10.6-9.1l10.3-9.6l5.1-4.8l4.9-5.1
			c3.2-3.4,6.6-6.7,9.7-10.3l9-10.9c2.9-3.7,5.5-7.8,8.2-11.6c10.3-15.9,18.2-33.2,24.3-50.9c6.1-17.7,10.5-36,13.4-54.4
			c2.8-18.5,4-37.1,3.4-55.8c-0.6-18.6-3.1-37.3-9-54.8C1404.7,319.2,1406,323.7,1406.8,328.2"/>
	</defs>
	<clipPath id="SVGID_14_">
		<use xlink:href="#SVGID_13_"  style="overflow:visible;"/>
	</clipPath>
	
		<linearGradient id="SVGID_15_" gradientUnits="userSpaceOnUse" x1="500.0543" y1="1999.9237" x2="501.0543" y2="1999.9237" gradientTransform="matrix(0 -671.7917 -671.7917 0 1344688.875 336917.1563)">
		<stop  offset="0" style="stop-color:#E5B250"/>
		<stop  offset="0.1" style="stop-color:#E5B250"/>
		<stop  offset="0.3026" style="stop-color:#F4D477"/>
		<stop  offset="0.4638" style="stop-color:#FEEB8F"/>
		<stop  offset="0.56" style="stop-color:#FFF799"/>
		<stop  offset="0.93" style="stop-color:#E5B250"/>
		<stop  offset="1" style="stop-color:#E5B250"/>
	</linearGradient>
	<rect x="899.9" y="314.7" class="st4" width="513.4" height="668.7"/>
</g>
<g>
	<defs>
		<path id="SVGID_16_" d="M2065.6,943.2c-206.7,185.2-449.1,117.5-653.3-56.6c-199.1-169.8-353.4-279.7-540.1-194
			c149.4-34.5,290.3,84.2,453.5,237.3c306,287,656.2,256.5,813.3,67.3c104.3-125.7,89.1-325.4-13.3-431.6
			C2202.3,676.8,2178.1,842.4,2065.6,943.2"/>
	</defs>
	<clipPath id="SVGID_17_">
		<use xlink:href="#SVGID_16_"  style="overflow:visible;"/>
	</clipPath>
	
		<linearGradient id="SVGID_18_" gradientUnits="userSpaceOnUse" x1="500.0392" y1="2000.028" x2="501.0392" y2="2000.028" gradientTransform="matrix(1305.7086 -4.170740e-02 -4.170740e-02 -1305.7086 -651949.9375 2612365.75)">
		<stop  offset="0" style="stop-color:#E5B250"/>
		<stop  offset="0.1" style="stop-color:#E5B250"/>
		<stop  offset="0.3026" style="stop-color:#F4D477"/>
		<stop  offset="0.4638" style="stop-color:#FEEB8F"/>
		<stop  offset="0.56" style="stop-color:#FFF799"/>
		<stop  offset="0.93" style="stop-color:#E5B250"/>
		<stop  offset="1" style="stop-color:#E5B250"/>
	</linearGradient>
	<rect x="872.2" y="565.5" class="st5" width="1371.1" height="651.4"/>
</g>
<g>
	<defs>
		<path id="SVGID_19_" d="M2065.6,943.2c-206.7,185.2-449.1,117.5-653.3-56.6c-199.1-169.8-353.4-279.7-540.1-194
			c174.3-68.6,324.6,43.6,511.2,208.4c238.8,211,517,247.4,706.6,60.2c110.1-108.7,120.8-286,35.6-395.6
			C2202.3,676.8,2178.1,842.4,2065.6,943.2"/>
	</defs>
	<clipPath id="SVGID_20_">
		<use xlink:href="#SVGID_19_"  style="overflow:visible;"/>
	</clipPath>
	
		<linearGradient id="SVGID_21_" gradientUnits="userSpaceOnUse" x1="500.0795" y1="1999.8883" x2="501.0795" y2="1999.8883" gradientTransform="matrix(0 -458.6668 -458.6668 0 918824 230394.125)">
		<stop  offset="0" style="stop-color:#956338"/>
		<stop  offset="0.1" style="stop-color:#956338"/>
		<stop  offset="0.1771" style="stop-color:#A4723A"/>
		<stop  offset="0.3481" style="stop-color:#C69244"/>
		<stop  offset="0.4815" style="stop-color:#DCA94C"/>
		<stop  offset="0.56" style="stop-color:#E5B250"/>
		<stop  offset="0.93" style="stop-color:#956338"/>
		<stop  offset="1" style="stop-color:#956338"/>
	</linearGradient>
	<rect x="872.2" y="565.6" class="st6" width="1338.7" height="582.8"/>
</g>
<g>
	<defs>
		<path id="SVGID_22_" d="M1614.3,230.8c-20.8,63.6,16.6,140.6,91.6,140.6c53.5,0,100-33.2,105.6-66.8
			c-34.2,24.9-74.8,5.9-67.1-41.7c12.9-79.9,88.2-105.9,136.4-108.1c74-3.3,140.2,40.2,122.2,125.1
			c-20.5,96.7-141.2,174.7-302.8,225.6c174.9,36.8,277,138.5,257.7,259.4c-17.8,111.7-101.3,192.9-203.8,192.9
			c-75,0-158.7-49.1-153.9-136.4c7.2-131.3,129.8-168.6,129.8-168.6c-44.4-27.6-271.2-33.1-311.8,127.1
			c-40.1,158.3,105.2,274,314.3,274c221.8,0,413.7-106.9,435.8-285.3c17-137.7-65.5-223.3-212.4-268.4
			c131.4-34.2,242.3-115.2,251.2-213.5c11.1-122.7-147.1-212.2-296.5-212.2C1771.3,74.5,1643.8,140.6,1614.3,230.8"/>
	</defs>
	<clipPath id="SVGID_23_">
		<use xlink:href="#SVGID_22_"  style="overflow:visible;"/>
	</clipPath>
	
		<linearGradient id="SVGID_24_" gradientUnits="userSpaceOnUse" x1="500.0679" y1="2000.0483" x2="501.0679" y2="2000.0483" gradientTransform="matrix(754.5002 0 0 -754.5002 -375858.0938 1509601.125)">
		<stop  offset="0" style="stop-color:#956338"/>
		<stop  offset="0.1" style="stop-color:#956338"/>
		<stop  offset="0.1771" style="stop-color:#A4723A"/>
		<stop  offset="0.3481" style="stop-color:#C69244"/>
		<stop  offset="0.4815" style="stop-color:#DCA94C"/>
		<stop  offset="0.56" style="stop-color:#E5B250"/>
		<stop  offset="0.93" style="stop-color:#956338"/>
		<stop  offset="1" style="stop-color:#956338"/>
	</linearGradient>
	<rect x="1378.2" y="74.5" class="st7" width="840.1" height="979.4"/>
</g>
<g>
	<defs>
		<path id="SVGID_25_" d="M1691.6,312.6c39.1,38.7,100.9,20.3,119.9-8c-34.2,24.9-74.8,5.9-67.1-41.7
			c12.9-79.9,88.2-105.9,136.4-108.1c74-3.3,140.2,40.2,122.2,125.1c-20.5,96.7-141.2,174.7-302.8,225.6
			c174.9,36.8,277,138.5,257.7,259.4c-17.8,111.7-101.3,192.9-203.8,192.9c-75,0-158.7-49.1-153.9-136.4
			c7.2-131.3,129.8-168.6,129.8-168.6c-78.9-5.8-236,39.2-226.9,177.6c8.8,133.3,149.2,181.9,267.2,171.4
			c134.7-12,282.9-82.9,301.3-243.2c18.4-160.3-148.2-240-239.6-253.4c42.2-10.6,187.8-63.7,249.7-153.9
			c51.7-75.2,25.1-236.8-186.1-236.8C1704.8,114.5,1642.3,263.8,1691.6,312.6"/>
	</defs>
	<clipPath id="SVGID_26_">
		<use xlink:href="#SVGID_25_"  style="overflow:visible;"/>
	</clipPath>
	
		<linearGradient id="SVGID_27_" gradientUnits="userSpaceOnUse" x1="500.0376" y1="1999.9471" x2="501.0376" y2="1999.9471" gradientTransform="matrix(0 -969.4584 -969.4584 0 1940679.375 485810.0625)">
		<stop  offset="0" style="stop-color:#CF8B2D"/>
		<stop  offset="0.1" style="stop-color:#CF8B2D"/>
		<stop  offset="0.1802" style="stop-color:#D69B3A"/>
		<stop  offset="0.3494" style="stop-color:#E5BD5F"/>
		<stop  offset="0.4818" style="stop-color:#EFD377"/>
		<stop  offset="0.56" style="stop-color:#F3DB80"/>
		<stop  offset="0.93" style="stop-color:#BB8632"/>
		<stop  offset="1" style="stop-color:#BB8632"/>
	</linearGradient>
	<rect x="1494.1" y="114.5" class="st8" width="639.5" height="897.8"/>
</g>
<g>
	<defs>
		<path id="SVGID_28_" d="M1896.3,109.3c-15.8,0-31.6,1-47.3,3.3l-4.5,0.6l-4.5,0.8l-9,1.7c-3,0.5-6,1.4-8.9,2.1
			c-3,0.8-6,1.4-8.9,2.2l-8.8,2.7l-4.4,1.4l-4.3,1.6l-8.6,3.2l-8.4,3.7l-4.2,1.8l-4.1,2.1c-2.7,1.4-5.5,2.7-8.2,4.2
			c-5.3,3.1-10.7,6-15.7,9.6c-5.2,3.3-10,7.1-14.9,10.8c-4.7,4-9.4,7.9-13.7,12.3c-17.5,17.2-31.9,38-39.7,61.6
			c-3.9,11.7-6,24.2-5.5,36.6l0.2,4.7c0.2,1.6,0.4,3.1,0.7,4.6c0.3,3.1,1.3,6.1,2,9.2c2,6,4.4,11.9,8.2,17c1.7,2.7,4,4.9,6.1,7.2
			c2.3,2.1,4.6,4.2,7.1,6c4.9,3.8,10.3,6.9,16,9.4c11.3,4.9,23.8,7,36,6.4c12.2-0.6,24.2-3.5,35.2-8.7c10.9-5.3,21-12.7,27.7-22.8
			c-7.1,9.8-17.5,16.6-28.3,21.3c-10.9,4.7-22.8,7.2-34.6,7.3c-11.8,0.1-23.6-2.2-34.2-7.3c-5.3-2.5-10.2-5.6-14.7-9.3
			c-2.3-1.8-4.4-3.8-6.4-5.9c-1.8-2.2-3.9-4.2-5.3-6.7c-3.3-4.7-5.4-10.1-7-15.5c-0.6-2.8-1.4-5.6-1.6-8.4c-0.2-1.4-0.4-2.9-0.5-4.3
			l-0.1-4.3c-0.2-11.6,2.1-23.2,6-34.1c3.9-11,9.4-21.5,16-31.1c6.6-9.7,14.4-18.6,22.9-26.6c4.2-4.1,8.8-7.8,13.3-11.5
			c4.8-3.5,9.4-7.1,14.4-10.1c4.9-3.3,10.1-6,15.2-9c2.6-1.4,5.3-2.6,7.9-3.9l4-1.9l4.1-1.7l8.1-3.4l8.3-3l4.2-1.5l4.2-1.3l8.5-2.5
			c2.8-0.8,5.7-1.4,8.6-2.1c2.9-0.6,5.7-1.4,8.6-1.9l8.7-1.5l4.4-0.8l4.4-0.5c23.4-3.1,47.2-3.6,70.8-2c23.6,1.6,47,5.7,69.2,13.2
			c2.8,0.8,5.5,1.9,8.3,3l8.2,3.2l7.9,3.7l4,1.9l3.8,2.1c10.3,5.4,19.8,12.3,28.6,19.9c8.9,7.5,16.5,16.4,23.1,25.8
			c6.6,9.5,12.1,19.8,16.1,30.6c8.1,21.7,10.8,45.4,8,68.5c-2.9,23.1-11.4,45.4-25.8,63.9c-14.2,18.8-31.3,35.5-49.8,50.4
			c-18.5,15-38.5,28.2-59.2,40.2c-20.6,12.1-42.1,22.9-64,32.6c-11,4.8-22.1,9.4-33.3,13.6c-11.2,4.3-22.5,8.3-34.1,11.6
			c23.4-5.6,46.2-13.6,68.5-22.5c22.3-9,44.3-19.1,65.5-30.6c21.2-11.5,41.7-24.5,61-39.2c19.3-14.7,37.1-31.6,52.2-50.9l5.5-7.4
			c1.8-2.5,3.4-5.2,5.1-7.8c1.6-2.7,3-5.5,4.5-8.2l3.9-8.5c4.8-11.5,7.9-23.6,9.6-35.9c3.3-24.6,0.7-50-7.8-73.4
			c-4.1-11.8-10.1-22.8-17.2-33.1c-7.1-10.2-15.3-19.7-24.8-27.8c-9.4-8.1-19.5-15.5-30.4-21.3l-4-2.3l-4.2-2l-8.4-4l-8.6-3.4
			c-2.9-1.1-5.7-2.3-8.7-3.2c-23.4-7.8-47.7-11.9-72.1-13.5c-8.4-0.5-16.9-0.8-25.3-0.8H1896.3z"/>
	</defs>
	<clipPath id="SVGID_29_">
		<use xlink:href="#SVGID_28_"  style="overflow:visible;"/>
	</clipPath>
	
		<linearGradient id="SVGID_30_" gradientUnits="userSpaceOnUse" x1="500.0908" y1="1999.8724" x2="501.0908" y2="1999.8724" gradientTransform="matrix(0 -401.5417 -401.5417 0 804923.8125 201317.8594)">
		<stop  offset="0" style="stop-color:#E5B250"/>
		<stop  offset="0.1" style="stop-color:#E5B250"/>
		<stop  offset="0.3026" style="stop-color:#F4D477"/>
		<stop  offset="0.4638" style="stop-color:#FEEB8F"/>
		<stop  offset="0.56" style="stop-color:#FFF799"/>
		<stop  offset="0.93" style="stop-color:#E5B250"/>
		<stop  offset="1" style="stop-color:#E5B250"/>
	</linearGradient>
	<rect x="1671.9" y="109.3" class="st9" width="439.4" height="395.9"/>
</g>
<g>
	<defs>
		<path id="SVGID_31_" d="M1877.1,516.5c14.7,4.8,29.1,10.5,43,17.1c27.9,13.2,54.2,29.9,77.1,50.3c22.9,20.3,42.5,44.7,55.1,72.4
			c12.9,27.6,17.8,58.5,16.1,88.7c-1,15.1-3.6,30.3-7.2,45c-3.6,14.8-8.7,29.2-15.1,42.9c-12.8,27.5-31,52.5-53.3,73.1
			c-22.2,20.8-47.9,37.7-75.4,51c-27.5,13.2-56.7,22.9-86.6,29.7c-14.9,3.4-30,6-45.2,7.9c-15.2,1.9-30.4,3.1-45.7,3.1
			c-30.5,0.1-61.1-3.7-90.4-11.9c-29.3-8.1-57.4-21-81.2-39.8c-23.6-18.7-42.6-43.5-52.3-72.2c-5-14.2-7.9-29.2-9-44.4
			c-1.1-15.1-0.1-30.4,3.3-45.1c3.3-14.7,9.4-28.8,17.6-41.6c8.2-12.8,18.5-24.2,30.1-34.1c11.5-10,24.5-18.4,38.1-25.5
			c13.6-7.1,28-12.9,42.7-17.5c14.7-4.7,29.8-8.1,45.1-10.3c15.3-2.3,30.8-3.3,46.3-2.6c-15.5-1.3-31.1-0.9-46.5,0.9
			c-15.4,1.8-30.8,4.8-45.7,9.1c-15,4.3-29.6,9.8-43.7,16.6c-14.1,6.8-27.5,15.1-39.7,25.1c-12.2,10-23,21.7-31.8,34.9
			c-8.8,13.2-15.4,27.9-19.1,43.3c-3.8,15.4-5.1,31.4-4.2,47.2c0.9,15.8,3.6,31.5,8.6,46.6c5,15.1,12.2,29.5,21.5,42.5
			c9.2,13,20.5,24.5,32.8,34.5c24.8,20,54.1,33.6,84.3,42.3c30.3,8.7,61.9,12.6,93.3,12.6c15.7,0,31.5-1.1,47-3
			c15.6-1.9,31-4.5,46.3-8c30.6-7,60.5-17,88.9-30.7c28.2-13.8,54.9-31.3,77.9-53.1c23-21.7,41.8-47.9,54.9-76.7
			c13.3-28.8,20.2-60.1,22-91.6c1.3-31.5-4.4-63.7-18.2-92.1c-13.6-28.5-34.1-53.3-57.9-73.5c-23.9-20.2-51-36.3-79.5-48.9
			c-28.5-12.5-58.5-21.6-89.3-25.8C1847.4,507.8,1862.4,511.7,1877.1,516.5"/>
	</defs>
	<clipPath id="SVGID_32_">
		<use xlink:href="#SVGID_31_"  style="overflow:visible;"/>
	</clipPath>
	
		<linearGradient id="SVGID_33_" gradientUnits="userSpaceOnUse" x1="500.0716" y1="1999.8993" x2="501.0716" y2="1999.8993" gradientTransform="matrix(0 -508.9583 -508.9583 0 1019653.8125 255524.1875)">
		<stop  offset="0" style="stop-color:#E5B250"/>
		<stop  offset="0.1" style="stop-color:#E5B250"/>
		<stop  offset="0.3026" style="stop-color:#F4D477"/>
		<stop  offset="0.4638" style="stop-color:#FEEB8F"/>
		<stop  offset="0.56" style="stop-color:#FFF799"/>
		<stop  offset="0.93" style="stop-color:#E5B250"/>
		<stop  offset="1" style="stop-color:#E5B250"/>
	</linearGradient>
	<rect x="1498.4" y="505.2" class="st10" width="579.9" height="503.4"/>
</g>
<path class="st11" d="M1048.8,1459.1c1.1-6.5,0.7-12.9-1.4-19.6c-2-6.5-6.9-11.3-14.8-14.4c-6.8-2.8-15.7-4.4-26.6-4.8
	c-10.9,0-26.3-0.3-46.2-0.3h-9.4l-14.8,83.1h15.8c16,0,29.9-0.2,41.2-0.6c11.3-0.7,20.5-2.3,27.5-5.4c9.9-4,16.7-9.1,20.7-15.6
	C1044.7,1475,1047.4,1467.6,1048.8,1459.1 M1045.2,1619c2.2-12.4,1.6-22.3-2.1-29c-3.7-6.6-11-11.8-21.9-15.1
	c-7.6-2.2-18.2-3.7-32-3.7c-13.9-0.1-28.4-0.1-43.5-0.1h-22.1l-17.2,97.9h7.5c28.3,0,48.6-0.3,61-0.5c12.4,0,24-2.5,35.1-6.8
	c11.3-4.4,19.6-10.2,24.9-17.6C1040.2,1636.7,1043.6,1628.5,1045.2,1619 M1150.2,1620.4c-3.2,19.1-10.1,36-20.6,51
	c-10.2,14.9-22.8,27.4-37.9,37.2c-17.6,11.6-36.1,19.8-55.4,24.7c-19.5,4.9-43.4,7.5-72.1,7.5H793.1l69.1-392.7h152.4
	c31.7,0,54.7,1,68.9,3.2c14.3,2,28.1,6.8,41.1,13.9c13.7,7.6,23.1,17.9,27.9,30.4c5.1,12.7,6.3,27.3,3.3,43.7
	c-3.3,19-11.4,35.6-23.8,50.2c-12.7,14.5-28.7,26-48.4,33.8l-0.4,2.3c24.8,5.1,43.2,15.5,55.5,31.5
	C1151.2,1573.2,1154.9,1594.5,1150.2,1620.4"/>
<path class="st11" d="M1416.8,1474.3c1.8-11.1,0.5-20.5-4-28.6c-4.7-7.9-10.5-13.5-17.9-16.7c-9.9-4.1-19.6-6.6-29.5-6.9
	c-10-0.5-23.2-0.6-40-0.6h-17.5l-20.7,117.1h29c17.2,0,31.7-0.8,43.1-3c11.6-2.1,21.6-6.3,30.4-12.6c7.4-5.6,13.3-12.4,17.7-20.1
	C1411.7,1495.1,1414.8,1485.5,1416.8,1474.3 M1521.7,1471.9c-3,17.6-9.1,34.9-18.2,51.7c-9,16.7-20.5,30.9-33.8,42.2
	c-18.4,15.5-37.9,27.3-58.6,35c-20.7,8.1-45.3,12-73.8,12h-63.2l-22.6,127.9h-101.1l69.2-392.7h166.7c24.8,0,45.6,2.2,61.9,6.6
	c16.3,4.4,30.4,10.6,42.1,19.2c14,10.3,23.8,23.8,29.3,40C1525.2,1429.9,1525.9,1449.4,1521.7,1471.9"/>
<path class="st11" d="M1758.6,1474.3c1.9-11.1,0.6-20.5-4-28.6c-4.5-7.9-10.6-13.5-17.9-16.7c-9.9-4.1-19.6-6.6-29.5-6.9
	c-10-0.5-23.3-0.6-39.9-0.6h-17.5l-20.7,117.1h29.1c17.3,0,31.6-0.8,43.1-3c11.4-2.1,21.6-6.3,30.2-12.6
	c7.6-5.6,13.5-12.4,17.7-20.1C1753.5,1495.1,1756.4,1485.5,1758.6,1474.3 M1863.6,1471.9c-3.2,17.6-9.1,34.9-18.4,51.7
	c-9.2,16.7-20.3,30.9-33.8,42.2c-18.4,15.5-37.8,27.3-58.4,35c-20.7,8.1-45.3,12-73.9,12h-63.1l-22.5,127.9h-101.1l69.2-392.7H1728
	c24.9,0,45.7,2.2,62,6.6c16.4,4.4,30.5,10.6,42.2,19.2c13.9,10.3,23.6,23.8,29,40C1866.8,1429.9,1867.5,1449.4,1863.6,1471.9"/>
<polygon class="st11" points="2196.9,1424.1 2074.3,1424.1 2018.6,1740.8 1917.3,1740.8 1973,1424.1 1850.5,1424.1 1863.8,1348.1 
	2210.2,1348.1 "/>
<g>
	<path class="st11" d="M831,1821c16.8,0,27.5,7.1,27.5,18.1c0,7.3-4.7,13.3-12.2,15.5c8.8,1.8,14.4,9,14.4,18.1
		c0,12.3-11.1,20.1-28.3,20.1h-36.7V1821H831z M817,1849.1h12.9c4.2,0,6.9-2.5,6.9-6.2c0-3.7-2.7-5.9-6.9-5.9H817V1849.1z
		 M817,1876.9h12.9c5.4,0,8.8-2.7,8.8-6.9c0-3.9-3.4-6.3-8.8-6.3H817V1876.9z"/>
	<path class="st11" d="M890.8,1837.4v11.3h33.9v16.4h-33.9v11.4h38.4v16.4h-59.7V1821h58.6v16.4H890.8z"/>
	<path class="st11" d="M971.9,1873.4h-11.3v19.3h-21.3V1821h33.5c19.2,0,30.3,9.2,30.3,25.5c0,10.6-4.3,18.4-12.1,22.8l14.5,23.4
		h-24.2L971.9,1873.4z M972.9,1857c6.3,0,10-3.5,10-9.9c0-6.2-3.7-9.7-10-9.7h-12.2v19.7H972.9z"/>
	<path class="st11" d="M1013.6,1892.8V1821h21.3v71.8H1013.6z"/>
	<path class="st11" d="M1096.9,1892.8l-30.4-39.9v39.9H1047V1821h18.2l30.4,40.1V1821h19.4v71.8H1096.9z"/>
	<path class="st11" d="M1201.2,1856.8c0,21.1-16.6,36.8-39.1,36.8c-22.5,0-39.1-15.7-39.1-36.8c0-21.1,16.6-36.4,39.1-36.4
		C1184.6,1820.4,1201.2,1835.8,1201.2,1856.8z M1144.8,1856.9c0,10.8,8.2,18.9,17.6,18.9c9.4,0,17-8.1,17-18.9
		c0-10.9-7.6-18.7-17-18.7C1152.9,1838.2,1144.8,1846.1,1144.8,1856.9z"/>
	<path class="st11" d="M1227.9,1892.8l-27.4-71.8h22.7l16.4,49.6l16.4-49.6h21.8l-27.7,71.8H1227.9z"/>
	<path class="st11" d="M1298.9,1881.3l-4.3,11.5h-21.9l30.6-71.8h21.9l29.6,71.8H1332l-4.2-11.5H1298.9z M1313.6,1842.3l-8.8,23.4
		h17.4L1313.6,1842.3z"/>
	<path class="st11" d="M1419.4,1828.4l-7.9,16.4c-7.4-4.2-17.8-8-23.8-8c-3.6,0-5.9,1.2-5.9,3.9c0,10.5,37.5,4.3,37.5,30.2
		c0,15.3-13.5,22.5-29.6,22.5c-12.2,0-25.5-4.3-34.5-11.4l8-16.2c7.4,6.2,19.3,11,26.7,11c4.5,0,7.4-1.5,7.4-4.8
		c0-10.8-37.5-4-37.5-29.3c0-13.8,11.8-22.6,29.7-22.6C1400.4,1820.1,1411.7,1823.4,1419.4,1828.4z"/>
	<path class="st11" d="M1427,1892.8V1821h21.3v71.8H1427z"/>
	<path class="st11" d="M1519.5,1838v54.8h-21.4V1838h-20.8v-17h63.1v17H1519.5z"/>
	<path class="st11" d="M1547.1,1892.8V1821h21.3v71.8H1547.1z"/>
	<path class="st11" d="M1599.8,1881.3l-4.3,11.5h-21.9l30.6-71.8h21.9l29.6,71.8h-22.7l-4.2-11.5H1599.8z M1614.5,1842.3l-8.8,23.4
		h17.4L1614.5,1842.3z"/>
	<path class="st11" d="M1692.3,1821c23.2,0,38.6,14.2,38.6,35.8c0,21.6-15.7,35.9-39.3,35.9h-30.7V1821H1692.3z M1682.2,1876.1h10.7
		c9.7,0,16.3-7.6,16.3-19c0-11.6-7.1-19.2-17.3-19.2h-9.7V1876.1z"/>
	<path class="st11" d="M1757.3,1881.3l-4.3,11.5h-21.9l30.6-71.8h21.9l29.6,71.8h-22.7l-4.2-11.5H1757.3z M1772,1842.3l-8.8,23.4
		h17.4L1772,1842.3z"/>
	<path class="st11" d="M1887.6,1892.8V1866h-25.5v26.7h-21.3V1821h21.3v28.6h25.5V1821h21.3v71.8H1887.6z"/>
	<path class="st11" d="M1942.2,1837.4v11.3h33.9v16.4h-33.9v11.4h38.4v16.4H1921V1821h58.7v16.4H1942.2z"/>
	<path class="st11" d="M2040.8,1892.8l-30.4-39.9v39.9h-19.5V1821h18.2l30.4,40.1V1821h19.4v71.8H2040.8z"/>
	<path class="st11" d="M2107.8,1838v54.8h-21.4V1838h-20.8v-17h63.1v17H2107.8z"/>
	<path class="st11" d="M2135.3,1892.8V1821h21.3v71.8H2135.3z"/>
</g>
</svg>
