<?xml version="1.0" encoding="utf-8"?>
<!-- Generator: Adobe Illustrator 21.0.0, SVG Export Plug-In . SVG Version: 6.00 Build 0)  -->
<svg version="1.1" id="Layer_1" xmlns="http://www.w3.org/2000/svg" xmlns:xlink="http://www.w3.org/1999/xlink" x="0px" y="0px"
	 viewBox="0 0 73.8 114.4" style="enable-background:new 0 0 73.8 114.4;" xml:space="preserve">
<style type="text/css">
	.st0{fill:#F0F0F0;}
</style>
<g>
	<path class="st0" d="M46,54.1l12.1-12.1c0.2,0.1,0.5,0.1,0.7,0.1c1.5,0,2.7-1.2,2.7-2.7c0-1.1-0.7-2.1-1.7-2.5V9.4l1.9-1.9
		c0.2,0.4,0.6,0.6,1,0.6l5.7,0c0.7,0,1.2-0.5,1.2-1.2l0-5.7c0-0.7-0.5-1.2-1.2-1.2l-5.7,0c-0.7,0-1.2,0.5-1.2,1.2l0,5.7
		c0,0.1,0,0.1,0,0.2l-2.2,2.2v27.6c-0.2,0-0.4-0.1-0.6-0.1c-1.5,0-2.7,1.2-2.7,2.7c0,1.1,0.6,2,1.6,2.4l-12,12v14.5L21.9,92.1v22.3
		h0.4V92.3L46,68.6V54.1z"/>
	<path class="st0" d="M0.4,59.9l21.8-21.7V31c1.3-0.2,2.3-1.3,2.3-2.6c0-1.5-1.2-2.7-2.7-2.7c-1.5,0-2.7,1.2-2.7,2.7
		c0,1.5,1.2,2.7,2.7,2.7v7L6.8,53V35.1l5.1-5.1c1.1,0.9,2.6,0.9,3.6-0.1c1.1-1,1.1-2.8,0-3.8c-1-1.1-2.8-1.1-3.8,0
		c-1,1-1.1,2.6-0.1,3.7L6.4,35l0,0h0v18.4L0,59.8v31.6l2.7,2.7v20.4h0.4V93.9l-2.7-2.7V59.9z"/>
	<path class="st0" d="M48.7,62.8l5.6-5.6c0.5,0.4,1.1,0.7,1.8,0.7c1.5,0,2.7-1.2,2.7-2.7c0-1.5-1.2-2.7-2.7-2.7
		c-1.5,0-2.7,1.2-2.7,2.7c0,0.6,0.2,1.2,0.6,1.7l-5.8,5.8v6.5L24.4,93v21.4h0.4V93.2l23.9-23.9V62.8z"/>
	<path class="st0" d="M40.4,61.6c1-0.4,1.8-1.3,1.8-2.5c0-1.5-1.2-2.7-2.7-2.7c-1.5,0-2.7,1.2-2.7,2.7c0,1.5,1.2,2.7,2.7,2.7
		c0.2,0,0.4,0,0.5-0.1v6.7L18.8,89.7v24.7h0.4V89.9l21.2-21.2V61.6z"/>
	<path class="st0" d="M27.2,69.9l3.3,0c0.7,0,1.2-0.5,1.2-1.2l0-5.7c0-0.7-0.5-1.2-1.2-1.2l-5.7,0c-0.7,0-1.2,0.5-1.2,1.2l0,5.7
		c0,0.7,0.5,1.2,1.2,1.2l2,0v2.5L16.1,83.1v31.3h0.4V83.3l10.7-10.7V69.9z"/>
	<path class="st0" d="M29.1,53c0.1,1.4,1.3,2.5,2.7,2.5c1.5,0,2.7-1.2,2.7-2.7c0-1.5-1.2-2.7-2.7-2.7c-1.4,0-2.5,1.1-2.6,2.5h-3.3
		l-0.1,0.1L13.3,65v49.4h0.4V65.2L25.9,53H29.1z"/>
	<path class="st0" d="M37.7,47.2l4.3-4.3h1c0.1,1.4,1.2,2.5,2.7,2.5c1.5,0,2.7-1.2,2.7-2.7c0-1.5-1.2-2.7-2.7-2.7
		c-1.4,0-2.6,1.1-2.7,2.5h-1.2l-4.3,4.3H27.4l-0.1,0.1L10.8,63.5v51h0.4V63.6l16.4-16.4H37.7z"/>
	<path class="st0" d="M30,41.8c0.1,1.4,1.2,2.5,2.7,2.5c1.5,0,2.7-1.2,2.7-2.7c0-0.2,0-0.4-0.1-0.6l8.4-8.4c0.2,0.2,0.5,0.3,0.8,0.3
		l5.7,0c0.7,0,1.2-0.5,1.2-1.2l0-5.7c0-0.7-0.5-1.2-1.2-1.2l-5.7,0c-0.7,0-1.2,0.5-1.2,1.2l0,5.7c0,0.2,0.1,0.4,0.2,0.6l-8.3,8.3
		c-0.4-1-1.4-1.7-2.5-1.7c-1.4,0-2.6,1.1-2.7,2.5h-1.8L8.1,61.5v53h0.4V61.6l19.9-19.9H30z"/>
	<path class="st0" d="M29.1,19.3l2.6-2.6c0.2,0.2,0.5,0.3,0.7,0.3l5.7,0c0.7,0,1.2-0.5,1.2-1.2l0-2.3h6.5l1.9-1.9
		c0.5,0.4,1.1,0.7,1.8,0.7c1.5,0,2.7-1.2,2.7-2.7c0-1.5-1.2-2.7-2.7-2.7c-1.5,0-2.7,1.2-2.7,2.7c0,0.7,0.2,1.3,0.6,1.7l-1.8,1.8
		h-6.3l0-2.9c0-0.7-0.5-1.2-1.2-1.2l-5.7,0c-0.7,0-1.2,0.5-1.2,1.2l0,5.7c0,0.2,0.1,0.4,0.2,0.6l-2.7,2.7v16.2L5.4,58.7v55.7h0.4
		V58.9l23.3-23.3V19.3z"/>
	<path class="st0" d="M64.8,76.1c-1.4,0-2.6,1.1-2.7,2.5H51.4l-0.1,0.1l-20,20v15.7h0.4V98.9L51.5,79h10.6c0.1,1.4,1.2,2.5,2.7,2.5
		c1.5,0,2.7-1.2,2.7-2.7C67.5,77.3,66.3,76.1,64.8,76.1z"/>
	<path class="st0" d="M36.8,22.1c-1.5,0-2.7,1.2-2.7,2.7c0,1.5,1.2,2.7,2.7,2.7c1.5,0,2.7-1.2,2.7-2.7
		C39.5,23.3,38.3,22.1,36.8,22.1z"/>
	<path class="st0" d="M72.6,33.5l-5.7,0c-0.7,0-1.2,0.5-1.2,1.2l0,5.7c0,0.5,0.3,1,0.8,1.1l-5.8,5.8V61l-33,33v20.5H28V94.1l33-33
		V47.4l5.9-5.9l5.6,0c0.7,0,1.2-0.5,1.2-1.2l0-5.7C73.8,34,73.2,33.5,72.6,33.5z"/>
</g>
</svg>
